<svg width="145" height="13" viewBox="0 0 145 13" fill="none" xmlns="http://www.w3.org/2000/svg">
<path d="M8.802 0.651999C9.342 0.651999 9.828 0.771999 10.26 1.012C10.692 1.24 11.028 1.552 11.268 1.948C11.508 2.344 11.628 2.788 11.628 3.28C11.628 4.228 11.388 4.96 10.908 5.476C10.44 5.992 9.852 6.352 9.144 6.556L9.126 6.628C10.434 6.952 11.088 7.768 11.088 9.076C11.088 9.736 10.926 10.372 10.602 10.984C10.278 11.584 9.816 12.07 9.216 12.442C8.628 12.814 7.944 13 7.164 13H0.288L2.034 0.651999H8.802ZM5.13 3.28L4.842 5.386H6.912C7.152 5.386 7.38 5.296 7.596 5.116C7.812 4.936 7.926 4.726 7.938 4.486L7.974 4.054C7.974 3.826 7.902 3.64 7.758 3.496C7.614 3.352 7.428 3.28 7.2 3.28H5.13ZM4.464 8.014L4.176 10.138H6.462C6.702 10.138 6.93 10.048 7.146 9.868C7.362 9.688 7.476 9.478 7.488 9.238L7.524 8.788C7.524 8.56 7.452 8.374 7.308 8.23C7.164 8.086 6.978 8.014 6.75 8.014H4.464ZM50.6438 0.651999L48.8978 13H45.1178L46.2338 5.08H46.1618L42.8858 13H38.5478L37.5218 5.08H37.4318L36.3158 13H32.8778L34.6238 0.651999H40.8158L41.6618 7.24H41.7338L44.4158 0.651999H50.6438ZM59.4622 0.651999C60.0022 0.651999 60.4882 0.771999 60.9202 1.012C61.3522 1.24 61.6882 1.552 61.9282 1.948C62.1682 2.344 62.2882 2.788 62.2882 3.28C62.2882 4.228 62.0482 4.96 61.5682 5.476C61.1002 5.992 60.5122 6.352 59.8042 6.556L59.7862 6.628C61.0942 6.952 61.7482 7.768 61.7482 9.076C61.7482 9.736 61.5862 10.372 61.2622 10.984C60.9382 11.584 60.4762 12.07 59.8762 12.442C59.2882 12.814 58.6042 13 57.8242 13H50.9482L52.6942 0.651999H59.4622ZM55.7902 3.28L55.5022 5.386H57.5722C57.8122 5.386 58.0402 5.296 58.2562 5.116C58.4722 4.936 58.5862 4.726 58.5982 4.486L58.6342 4.054C58.6342 3.826 58.5622 3.64 58.4182 3.496C58.2742 3.352 58.0882 3.28 57.8602 3.28H55.7902ZM55.1242 8.014L54.8362 10.138H57.1222C57.3622 10.138 57.5902 10.048 57.8062 9.868C58.0222 9.688 58.1362 9.478 58.1482 9.238L58.1842 8.788C58.1842 8.56 58.1122 8.374 57.9682 8.23C57.8242 8.086 57.6382 8.014 57.4102 8.014H55.1242ZM82.7708 0.651999C83.3108 0.651999 83.7968 0.771999 84.2288 1.012C84.6608 1.24 84.9968 1.552 85.2368 1.948C85.4768 2.344 85.5968 2.788 85.5968 3.28C85.5968 4.228 85.3568 4.96 84.8768 5.476C84.4088 5.992 83.8208 6.352 83.1128 6.556L83.0948 6.628C84.4028 6.952 85.0568 7.768 85.0568 9.076C85.0568 9.736 84.8948 10.372 84.5708 10.984C84.2468 11.584 83.7848 12.07 83.1848 12.442C82.5968 12.814 81.9128 13 81.1328 13H74.2568L76.0028 0.651999H82.7708ZM79.0988 3.28L78.8108 5.386H80.8808C81.1208 5.386 81.3488 5.296 81.5648 5.116C81.7808 4.936 81.8948 4.726 81.9068 4.486L81.9428 4.054C81.9428 3.826 81.8708 3.64 81.7268 3.496C81.5828 3.352 81.3968 3.28 81.1688 3.28H79.0988ZM78.4328 8.014L78.1448 10.138H80.4308C80.6708 10.138 80.8988 10.048 81.1148 9.868C81.3308 9.688 81.4448 9.478 81.4568 9.238L81.4928 8.788C81.4928 8.56 81.4208 8.374 81.2768 8.23C81.1328 8.086 80.9468 8.014 80.7188 8.014H78.4328ZM124.613 0.651999L122.867 13H119.087L120.203 5.08H120.131L116.855 13H112.517L111.491 5.08H111.401L110.285 13H106.847L108.593 0.651999H114.785L115.631 7.24H115.703L118.385 0.651999H124.613ZM133.431 0.651999C133.971 0.651999 134.457 0.771999 134.889 1.012C135.321 1.24 135.657 1.552 135.897 1.948C136.137 2.344 136.257 2.788 136.257 3.28C136.257 4.228 136.017 4.96 135.537 5.476C135.069 5.992 134.481 6.352 133.773 6.556L133.755 6.628C135.063 6.952 135.717 7.768 135.717 9.076C135.717 9.736 135.555 10.372 135.231 10.984C134.907 11.584 134.445 12.07 133.845 12.442C133.257 12.814 132.573 13 131.793 13H124.917L126.663 0.651999H133.431ZM129.759 3.28L129.471 5.386H131.541C131.781 5.386 132.009 5.296 132.225 5.116C132.441 4.936 132.555 4.726 132.567 4.486L132.603 4.054C132.603 3.826 132.531 3.64 132.387 3.496C132.243 3.352 132.057 3.28 131.829 3.28H129.759ZM129.093 8.014L128.805 10.138H131.091C131.331 10.138 131.559 10.048 131.775 9.868C131.991 9.688 132.105 9.478 132.117 9.238L132.153 8.788C132.153 8.56 132.081 8.374 131.937 8.23C131.793 8.086 131.607 8.014 131.379 8.014H129.093Z" fill="#9853F0"/>
<path d="M70.8607 0.651999L70.4827 3.298H69.0247L68.0347 10.336H69.4927L69.1147 13H62.3827L62.7607 10.336H64.2187L65.2087 3.298H63.7507L64.1287 0.651999H70.8607ZM144.829 0.651999L144.451 3.298H142.993L142.003 10.336H143.461L143.083 13H136.351L136.729 10.336H138.187L139.177 3.298H137.719L138.097 0.651999H144.829Z" fill="#FFB800"/>
</svg>
