<svg width="132" height="76" viewBox="0 0 132 76" fill="none" xmlns="http://www.w3.org/2000/svg">
<path d="M15.648 8.048C16.608 8.048 17.472 8.26133 18.24 8.688C19.008 9.09333 19.6053 9.648 20.032 10.352C20.4587 11.056 20.672 11.8453 20.672 12.72C20.672 14.4053 20.2453 15.7067 19.392 16.624C18.56 17.5413 17.5147 18.1813 16.256 18.544L16.224 18.672C18.5493 19.248 19.712 20.6987 19.712 23.024C19.712 24.1973 19.424 25.328 18.848 26.416C18.272 27.4827 17.4507 28.3467 16.384 29.008C15.3387 29.6693 14.1227 30 12.736 30H0.512L3.616 8.048H15.648ZM9.12 12.72L8.608 16.464H12.288C12.7147 16.464 13.12 16.304 13.504 15.984C13.888 15.664 14.0907 15.2907 14.112 14.864L14.176 14.096C14.176 13.6907 14.048 13.36 13.792 13.104C13.536 12.848 13.2053 12.72 12.8 12.72H9.12ZM7.936 21.136L7.424 24.912H11.488C11.9147 24.912 12.32 24.752 12.704 24.432C13.088 24.112 13.2907 23.7387 13.312 23.312L13.376 22.512C13.376 22.1067 13.248 21.776 12.992 21.52C12.736 21.264 12.4053 21.136 12 21.136H7.936ZM90.0335 8.048L86.9295 30H80.2095L82.1935 15.92H82.0655L76.2415 30H68.5295L66.7055 15.92H66.5455L64.5615 30H58.4495L61.5535 8.048H72.5615L74.0655 19.76H74.1935L78.9615 8.048H90.0335ZM105.711 8.048C106.671 8.048 107.535 8.26133 108.303 8.688C109.071 9.09333 109.668 9.648 110.095 10.352C110.521 11.056 110.735 11.8453 110.735 12.72C110.735 14.4053 110.308 15.7067 109.455 16.624C108.623 17.5413 107.577 18.1813 106.319 18.544L106.287 18.672C108.612 19.248 109.775 20.6987 109.775 23.024C109.775 24.1973 109.487 25.328 108.911 26.416C108.335 27.4827 107.513 28.3467 106.447 29.008C105.401 29.6693 104.185 30 102.799 30H90.5745L93.6785 8.048H105.711ZM99.1825 12.72L98.6705 16.464H102.351C102.777 16.464 103.183 16.304 103.567 15.984C103.951 15.664 104.153 15.2907 104.175 14.864L104.239 14.096C104.239 13.6907 104.111 13.36 103.855 13.104C103.599 12.848 103.268 12.72 102.863 12.72H99.1825ZM97.9985 21.136L97.4865 24.912H101.551C101.977 24.912 102.383 24.752 102.767 24.432C103.151 24.112 103.353 23.7387 103.375 23.312L103.439 22.512C103.439 22.1067 103.311 21.776 103.055 21.52C102.799 21.264 102.468 21.136 102.063 21.136H97.9985ZM15.648 46.048C16.608 46.048 17.472 46.2613 18.24 46.688C19.008 47.0933 19.6053 47.648 20.032 48.352C20.4587 49.056 20.672 49.8453 20.672 50.72C20.672 52.4053 20.2453 53.7067 19.392 54.624C18.56 55.5413 17.5147 56.1813 16.256 56.544L16.224 56.672C18.5493 57.248 19.712 58.6987 19.712 61.024C19.712 62.1973 19.424 63.328 18.848 64.416C18.272 65.4827 17.4507 66.3467 16.384 67.008C15.3387 67.6693 14.1227 68 12.736 68H0.512L3.616 46.048H15.648ZM9.12 50.72L8.608 54.464H12.288C12.7147 54.464 13.12 54.304 13.504 53.984C13.888 53.664 14.0907 53.2907 14.112 52.864L14.176 52.096C14.176 51.6907 14.048 51.36 13.792 51.104C13.536 50.848 13.2053 50.72 12.8 50.72H9.12ZM7.936 59.136L7.424 62.912H11.488C11.9147 62.912 12.32 62.752 12.704 62.432C13.088 62.112 13.2907 61.7387 13.312 61.312L13.376 60.512C13.376 60.1067 13.248 59.776 12.992 59.52C12.736 59.264 12.4053 59.136 12 59.136H7.936ZM90.0335 46.048L86.9295 68H80.2095L82.1935 53.92H82.0655L76.2415 68H68.5295L66.7055 53.92H66.5455L64.5615 68H58.4495L61.5535 46.048H72.5615L74.0655 57.76H74.1935L78.9615 46.048H90.0335ZM105.711 46.048C106.671 46.048 107.535 46.2613 108.303 46.688C109.071 47.0933 109.668 47.648 110.095 48.352C110.521 49.056 110.735 49.8453 110.735 50.72C110.735 52.4053 110.308 53.7067 109.455 54.624C108.623 55.5413 107.577 56.1813 106.319 56.544L106.287 56.672C108.612 57.248 109.775 58.6987 109.775 61.024C109.775 62.1973 109.487 63.328 108.911 64.416C108.335 65.4827 107.513 66.3467 106.447 67.008C105.401 67.6693 104.185 68 102.799 68H90.5745L93.6785 46.048H105.711ZM99.1825 50.72L98.6705 54.464H102.351C102.777 54.464 103.183 54.304 103.567 53.984C103.951 53.664 104.153 53.2907 104.175 52.864L104.239 52.096C104.239 51.6907 104.111 51.36 103.855 51.104C103.599 50.848 103.268 50.72 102.863 50.72H99.1825ZM97.9985 59.136L97.4865 62.912H101.551C101.977 62.912 102.383 62.752 102.767 62.432C103.151 62.112 103.353 61.7387 103.375 61.312L103.439 60.512C103.439 60.1067 103.311 59.776 103.055 59.52C102.799 59.264 102.468 59.136 102.063 59.136H97.9985Z" fill="#9853F0"/>
<path d="M125.975 8.048L125.303 12.752H122.711L120.951 25.264H123.543L122.871 30H110.902L111.575 25.264H114.167L115.927 12.752H113.335L114.007 8.048H125.975ZM125.975 46.048L125.303 50.752H122.711L120.951 63.264H123.543L122.871 68H110.902L111.575 63.264H114.167L115.927 50.752H113.335L114.007 46.048H125.975Z" fill="#FFB800"/>
<path d="M26.5302 29.6799C21.6047 27.245 21.8188 20.7864 22.1113 17.1404C22.9116 8.78925 28.0804 6.91865 31.2303 7.3154C35.1676 7.81145 40.1494 9.70845 38.4309 20.6298C36.7124 31.5511 28.6242 30.9488 26.5302 29.6799Z" fill="#9853F0"/>
<path d="M26.1288 25.3541C23.2156 24.4802 23.0161 20.8007 23.0007 18.7059C23.0395 13.8945 26.3088 12.7513 27.8408 12.4405C29.3164 12.2617 32.8573 12.6476 32.4257 19.0086C31.9941 25.3697 27.379 25.858 26.1288 25.3541Z" fill="white"/>
<ellipse rx="2.52004" ry="2.98759" transform="matrix(0.996729 -0.0808156 0.0413922 0.999143 25.1509 18.647)" fill="black"/>
<path d="M45.8808 29.6799C40.9554 27.245 41.1695 20.7865 41.4619 17.1404C42.2622 8.78925 47.4311 6.91866 50.5809 7.31541C54.5183 7.81146 59.5001 9.70846 57.7815 20.6298C56.063 31.5511 47.9749 30.9488 45.8808 29.6799Z" fill="#9853F0"/>
<path d="M45.4792 25.3541C42.566 24.4802 42.3665 20.8007 42.3512 18.7059C42.39 13.8945 45.6593 12.7513 47.1913 12.4405C48.6669 12.2617 52.2078 12.6476 51.7762 19.0086C51.3445 25.3697 46.7294 25.858 45.4792 25.3541Z" fill="white"/>
<ellipse rx="2.52004" ry="2.98759" transform="matrix(0.996729 -0.0808156 0.0413922 0.999143 44.5011 18.647)" fill="black"/>
<path d="M53.7683 46.0449C58.6703 48.6078 58.3101 55.0676 57.9341 58.71C56.9415 67.0493 51.698 68.7901 48.5372 68.3127C44.5861 67.7158 39.6153 65.6899 41.5895 54.8011C43.5637 43.9123 51.6895 44.7213 53.7683 46.0449Z" fill="#9853F0"/>
<path d="M54.0387 50.6315C56.9508 51.5805 57.0691 55.2689 57.0376 57.3662C56.8907 62.1816 53.575 63.2427 52.0264 63.5147C50.5375 63.6561 46.9828 63.1796 47.5598 56.823C48.1367 50.4664 52.7919 50.0952 54.0387 50.6315Z" fill="white"/>
<ellipse rx="2.53686" ry="2.99106" transform="matrix(-0.998177 0.0551331 -0.019235 -1.00006 54.8724 57.3704)" fill="black"/>
<path d="M34.4675 46.1252C39.3695 48.6881 39.0092 55.1478 38.6332 58.7902C37.6406 67.1295 32.3972 68.8703 29.2363 68.3929C25.2852 67.796 20.3144 65.7701 22.2886 54.8813C24.2628 43.9926 32.3886 44.8015 34.4675 46.1252Z" fill="#9853F0"/>
<path d="M34.738 50.7118C37.6501 51.6608 37.7684 55.3492 37.7369 57.4465C37.59 62.2619 34.2743 63.323 32.7257 63.595C31.2368 63.7364 27.6821 63.2599 28.2591 56.9033C28.836 50.5467 33.4913 50.1755 34.738 50.7118Z" fill="white"/>
<ellipse rx="2.53686" ry="2.99106" transform="matrix(-0.998177 0.0551331 -0.019235 -1.00006 35.5715 57.4506)" fill="black"/>
</svg>
