<svg width="147" height="65" viewBox="0 0 147 65" fill="none" xmlns="http://www.w3.org/2000/svg">
<path d="M18.1804 0.905509C19.2957 0.905509 20.2996 1.15337 21.1918 1.64908C22.0841 2.12001 22.7781 2.76444 23.2739 3.58237C23.7696 4.4003 24.0174 5.31738 24.0174 6.3336C24.0174 8.29167 23.5217 9.80361 22.5303 10.8694C21.5636 11.9352 20.3491 12.6788 18.8868 13.1001L18.8496 13.2488C21.5512 13.918 22.9021 15.6035 22.9021 18.3051C22.9021 19.6683 22.5675 20.982 21.8982 22.2461C21.229 23.4854 20.2748 24.4892 19.0355 25.2575C17.821 26.0259 16.4082 26.4101 14.7971 26.4101H0.594859L4.20119 0.905509H18.1804ZM10.5959 6.3336L10.0011 10.6835H14.2766C14.7723 10.6835 15.2433 10.4976 15.6894 10.1258C16.1355 9.75403 16.371 9.32028 16.3958 8.82457L16.4702 7.93228C16.4702 7.46135 16.3214 7.07717 16.024 6.77974C15.7266 6.48231 15.3424 6.3336 14.8715 6.3336H10.5959ZM9.22031 16.1116L8.62545 20.4987H13.3471C13.8429 20.4987 14.3138 20.3128 14.7599 19.941C15.2061 19.5692 15.4415 19.1355 15.4663 18.6397L15.5407 17.7103C15.5407 17.2393 15.392 16.8552 15.0945 16.5577C14.7971 16.2603 14.4129 16.1116 13.942 16.1116H9.22031ZM104.604 0.905509L100.998 26.4101H93.1901L95.4952 10.0515H95.3464L88.5799 26.4101H79.6199L77.5007 10.0515H77.3148L75.0097 26.4101H67.9086L71.5149 0.905509H84.3044L86.0518 14.5129H86.2005L91.7401 0.905509H104.604ZM122.818 0.905509C123.933 0.905509 124.937 1.15337 125.829 1.64908C126.722 2.12001 127.416 2.76444 127.911 3.58237C128.407 4.4003 128.655 5.31738 128.655 6.3336C128.655 8.29167 128.159 9.80361 127.168 10.8694C126.201 11.9352 124.987 12.6788 123.524 13.1001L123.487 13.2488C126.189 13.918 127.54 15.6035 127.54 18.3051C127.54 19.6683 127.205 20.982 126.536 22.2461C125.867 23.4854 124.912 24.4892 123.673 25.2575C122.459 26.0259 121.046 26.4101 119.435 26.4101H105.232L108.839 0.905509H122.818ZM115.234 6.3336L114.639 10.6835H118.914C119.41 10.6835 119.881 10.4976 120.327 10.1258C120.773 9.75403 121.009 9.32028 121.033 8.82457L121.108 7.93228C121.108 7.46135 120.959 7.07717 120.662 6.77974C120.364 6.48231 119.98 6.3336 119.509 6.3336H115.234ZM113.858 16.1116L113.263 20.4987H117.985C118.48 20.4987 118.951 20.3128 119.398 19.941C119.844 19.5692 120.079 19.1355 120.104 18.6397L120.178 17.7103C120.178 17.2393 120.03 16.8552 119.732 16.5577C119.435 16.2603 119.051 16.1116 118.58 16.1116H113.858ZM18.1804 38.9055C19.2957 38.9055 20.2996 39.1534 21.1918 39.6491C22.0841 40.12 22.7781 40.7644 23.2739 41.5824C23.7696 42.4003 24.0174 43.3174 24.0174 44.3336C24.0174 46.2917 23.5217 47.8036 22.5303 48.8694C21.5636 49.9352 20.3491 50.6788 18.8868 51.1001L18.8496 51.2488C21.5512 51.918 22.9021 53.6035 22.9021 56.3051C22.9021 57.6683 22.5675 58.982 21.8982 60.2461C21.229 61.4854 20.2748 62.4892 19.0355 63.2575C17.821 64.0259 16.4082 64.4101 14.7971 64.4101H0.594859L4.20119 38.9055H18.1804ZM10.5959 44.3336L10.0011 48.6835H14.2766C14.7723 48.6835 15.2433 48.4976 15.6894 48.1258C16.1355 47.754 16.371 47.3203 16.3958 46.8246L16.4702 45.9323C16.4702 45.4613 16.3214 45.0772 16.024 44.7797C15.7266 44.4823 15.3424 44.3336 14.8715 44.3336H10.5959ZM9.22031 54.1116L8.62545 58.4987H13.3471C13.8429 58.4987 14.3138 58.3128 14.7599 57.941C15.2061 57.5692 15.4415 57.1355 15.4663 56.6397L15.5407 55.7103C15.5407 55.2393 15.392 54.8552 15.0945 54.5577C14.7971 54.2603 14.4129 54.1116 13.942 54.1116H9.22031ZM104.604 38.9055L100.998 64.4101H93.1901L95.4952 48.0515H95.3464L88.5799 64.4101H79.6199L77.5007 48.0515H77.3148L75.0097 64.4101H67.9086L71.5149 38.9055H84.3044L86.0518 52.5129H86.2005L91.7401 38.9055H104.604ZM122.818 38.9055C123.933 38.9055 124.937 39.1534 125.829 39.6491C126.722 40.12 127.416 40.7644 127.911 41.5824C128.407 42.4003 128.655 43.3174 128.655 44.3336C128.655 46.2917 128.159 47.8036 127.168 48.8694C126.201 49.9352 124.987 50.6788 123.524 51.1001L123.487 51.2488C126.189 51.918 127.54 53.6035 127.54 56.3051C127.54 57.6683 127.205 58.982 126.536 60.2461C125.867 61.4854 124.912 62.4892 123.673 63.2575C122.459 64.0259 121.046 64.4101 119.435 64.4101H105.232L108.839 38.9055H122.818ZM115.234 44.3336L114.639 48.6835H118.914C119.41 48.6835 119.881 48.4976 120.327 48.1258C120.773 47.754 121.009 47.3203 121.033 46.8246L121.108 45.9323C121.108 45.4613 120.959 45.0772 120.662 44.7797C120.364 44.4823 119.98 44.3336 119.509 44.3336H115.234ZM113.858 54.1116L113.263 58.4987H117.985C118.48 58.4987 118.951 58.3128 119.398 57.941C119.844 57.5692 120.079 57.1355 120.104 56.6397L120.178 55.7103C120.178 55.2393 120.03 54.8552 119.732 54.5577C119.435 54.2603 119.051 54.1116 118.58 54.1116H113.858Z" fill="#9853F0"/>
<path d="M146.361 0.905509L145.581 6.37077H142.569L140.524 20.9076H143.536L142.755 26.4101H128.85L129.631 20.9076H132.642L134.687 6.37077H131.676L132.457 0.905509H146.361ZM146.361 38.9055L145.581 44.3708H142.569L140.524 58.9076H143.536L142.755 64.4101H128.85L129.631 58.9076H132.642L134.687 44.3708H131.676L132.457 38.9055H146.361Z" fill="#FFB800"/>
<path d="M21.1918 1.64908L20.6903 2.55186L20.7 2.55725L20.7098 2.56242L21.1918 1.64908ZM23.2739 3.58237L24.157 3.0471L24.157 3.0471L23.2739 3.58237ZM22.5303 10.8694L21.7741 10.1659L21.7653 10.1756L22.5303 10.8694ZM18.8868 13.1001L18.6008 12.1077L18.0292 12.2725L17.8849 12.8496L18.8868 13.1001ZM18.8496 13.2488L17.8477 12.9984L17.5967 14.0024L18.6013 14.2513L18.8496 13.2488ZM21.8982 22.2461L22.807 22.7368L22.811 22.7293L21.8982 22.2461ZM19.0355 25.2575L18.4913 24.3798L18.4833 24.3848L19.0355 25.2575ZM0.594859 26.4101L-0.42771 26.2655L-0.594184 27.4428H0.594859V26.4101ZM4.20119 0.905509V-0.127232H3.30421L3.17862 0.760918L4.20119 0.905509ZM10.5959 6.3336V5.30085H9.6948L9.57271 6.19367L10.5959 6.3336ZM10.0011 10.6835L8.97785 10.5436L8.81748 11.7162H10.0011V10.6835ZM15.6894 10.1258L15.0283 9.33245L15.0283 9.33245L15.6894 10.1258ZM16.3958 8.82457L15.3666 8.7388L15.3652 8.75588L15.3643 8.773L16.3958 8.82457ZM16.4702 7.93228L17.4993 8.01804L17.5029 7.97524V7.93228H16.4702ZM16.024 6.77974L15.2937 7.51L15.2938 7.51L16.024 6.77974ZM9.22031 16.1116V15.0788H8.31815L8.19694 15.9728L9.22031 16.1116ZM8.62545 20.4987L7.60208 20.3599L7.44323 21.5314H8.62545V20.4987ZM15.4663 18.6397L14.4369 18.5574L14.4356 18.5728L14.4349 18.5882L15.4663 18.6397ZM15.5407 17.7103L16.5701 17.7926L16.5734 17.7515V17.7103H15.5407ZM18.1804 1.93825C19.1369 1.93825 19.9654 2.14913 20.6903 2.55186L21.6934 0.746306C20.6337 0.157602 19.4546 -0.127232 18.1804 -0.127232V1.93825ZM20.7098 2.56242C21.4461 2.951 21.9973 3.46868 22.3907 4.11765L24.157 3.0471C23.5589 2.06021 22.7222 1.28902 21.6739 0.735743L20.7098 2.56242ZM22.3907 4.11765C22.7824 4.76397 22.9847 5.49382 22.9847 6.3336H25.0502C25.0502 5.14093 24.7568 4.03664 24.157 3.0471L22.3907 4.11765ZM22.9847 6.3336C22.9847 8.12245 22.5338 9.34929 21.7741 10.166L23.2864 11.5728C24.5096 10.2579 25.0502 8.46089 25.0502 6.3336H22.9847ZM21.7653 10.1756C20.9351 11.091 19.89 11.7363 18.6008 12.1077L19.1727 14.0925C20.8083 13.6212 22.1922 12.7794 23.2952 11.5632L21.7653 10.1756ZM17.8849 12.8496L17.8477 12.9984L19.8515 13.4993L19.8887 13.3506L17.8849 12.8496ZM18.6013 14.2513C19.7961 14.5472 20.5857 15.0401 21.0831 15.6607C21.5779 16.2781 21.8693 17.1289 21.8693 18.3051H23.9348C23.9348 16.7797 23.5508 15.437 22.6948 14.3689C21.8414 13.3041 20.6047 12.6196 19.0979 12.2464L18.6013 14.2513ZM21.8693 18.3051C21.8693 19.4915 21.5799 20.6401 20.9855 21.7629L22.811 22.7293C23.555 21.3239 23.9348 19.8452 23.9348 18.3051H21.8693ZM20.9895 21.7554C20.4091 22.8303 19.583 23.7029 18.4913 24.3798L19.5797 26.1353C20.9665 25.2754 22.049 24.1404 22.807 22.7368L20.9895 21.7554ZM18.4833 24.3848C17.4535 25.0363 16.2371 25.3773 14.7971 25.3773V27.4428C16.5793 27.4428 18.1885 27.0155 19.5876 26.1303L18.4833 24.3848ZM14.7971 25.3773H0.594859V27.4428H14.7971V25.3773ZM1.61743 26.5547L5.22376 1.0501L3.17862 0.760918L-0.42771 26.2655L1.61743 26.5547ZM4.20119 1.93825H18.1804V-0.127232H4.20119V1.93825ZM9.57271 6.19367L8.97785 10.5436L11.0243 10.8234L11.6191 6.47352L9.57271 6.19367ZM10.0011 11.7162H14.2766V9.65076H10.0011V11.7162ZM14.2766 11.7162C15.0541 11.7162 15.7522 11.4178 16.3505 10.9192L15.0283 9.33245C14.7343 9.57743 14.4905 9.65076 14.2766 9.65076V11.7162ZM16.3505 10.9192C16.9771 10.3971 17.3856 9.70952 17.4272 8.87614L15.3643 8.773C15.3564 8.93105 15.294 9.11102 15.0283 9.33245L16.3505 10.9192ZM17.425 8.91033L17.4993 8.01804L15.441 7.84651L15.3666 8.7388L17.425 8.91033ZM17.5029 7.93228C17.5029 7.22325 17.2693 6.56452 16.7543 6.04948L15.2938 7.51C15.3736 7.58982 15.4374 7.69944 15.4374 7.93228H17.5029ZM16.7543 6.04948C16.2392 5.53445 15.5805 5.30085 14.8715 5.30085V7.36634C15.1043 7.36634 15.2139 7.43017 15.2937 7.51L16.7543 6.04948ZM14.8715 5.30085H10.5959V7.36634H14.8715V5.30085ZM8.19694 15.9728L7.60208 20.3599L9.64883 20.6374L10.2437 16.2504L8.19694 15.9728ZM8.62545 21.5314H13.3471V19.4659H8.62545V21.5314ZM13.3471 21.5314C14.1247 21.5314 14.8228 21.233 15.4211 20.7344L14.0988 19.1476C13.8048 19.3926 13.5611 19.4659 13.3471 19.4659V21.5314ZM15.4211 20.7344C16.0477 20.2122 16.4561 19.5247 16.4978 18.6913L14.4349 18.5882C14.427 18.7462 14.3645 18.9262 14.0988 19.1476L15.4211 20.7344ZM16.4958 18.7221L16.5701 17.7926L14.5112 17.6279L14.4369 18.5574L16.4958 18.7221ZM16.5734 17.7103C16.5734 17.0012 16.3398 16.3425 15.8248 15.8275L14.3643 17.288C14.4441 17.3678 14.5079 17.4774 14.5079 17.7103H16.5734ZM15.8248 15.8275C15.3098 15.3124 14.651 15.0788 13.942 15.0788V17.1443C14.1748 17.1443 14.2845 17.2082 14.3643 17.288L15.8248 15.8275ZM13.942 15.0788H9.22031V17.1443H13.942V15.0788ZM104.604 0.905509L105.627 1.0501L105.793 -0.127232H104.604V0.905509ZM100.998 26.4101V27.4428H101.895L102.02 26.5547L100.998 26.4101ZM93.1901 26.4101L92.1674 26.266L92.0016 27.4428H93.1901V26.4101ZM95.4952 10.0515L96.5178 10.1956L96.6836 9.01872H95.4952V10.0515ZM95.3464 10.0515V9.01872H94.656L94.3921 9.65672L95.3464 10.0515ZM88.5799 26.4101V27.4428H89.2704L89.5343 26.8048L88.5799 26.4101ZM79.6199 26.4101L78.5957 26.5428L78.7123 27.4428H79.6199V26.4101ZM77.5007 10.0515L78.5249 9.91878L78.4083 9.01872H77.5007V10.0515ZM77.3148 10.0515V9.01872H76.4174L76.2922 9.90736L77.3148 10.0515ZM75.0097 26.4101V27.4428H75.9071L76.0324 26.5542L75.0097 26.4101ZM67.9086 26.4101L66.886 26.2655L66.7195 27.4428H67.9086V26.4101ZM71.5149 0.905509V-0.127232H70.6179L70.4923 0.760918L71.5149 0.905509ZM84.3044 0.905509L85.3287 0.773969L85.213 -0.127232H84.3044V0.905509ZM86.0518 14.5129L85.0275 14.6444L85.1432 15.5456H86.0518V14.5129ZM86.2005 14.5129V15.5456H86.8951L87.157 14.9023L86.2005 14.5129ZM91.7401 0.905509V-0.127232H91.0455L90.7836 0.516108L91.7401 0.905509ZM103.581 0.760918L99.975 26.2655L102.02 26.5547L105.627 1.0501L103.581 0.760918ZM100.998 25.3773H93.1901V27.4428H100.998V25.3773ZM94.2127 26.5542L96.5178 10.1956L94.4725 9.90736L92.1674 26.266L94.2127 26.5542ZM95.4952 9.01872H95.3464V11.0842H95.4952V9.01872ZM94.3921 9.65672L87.6256 26.0153L89.5343 26.8048L96.3008 10.4462L94.3921 9.65672ZM88.5799 25.3773H79.6199V27.4428H88.5799V25.3773ZM80.6441 26.2774L78.5249 9.91878L76.4765 10.1841L78.5957 26.5428L80.6441 26.2774ZM77.5007 9.01872H77.3148V11.0842H77.5007V9.01872ZM76.2922 9.90736L73.9871 26.266L76.0324 26.5542L78.3374 10.1956L76.2922 9.90736ZM75.0097 25.3773H67.9086V27.4428H75.0097V25.3773ZM68.9312 26.5547L72.5375 1.0501L70.4923 0.760918L66.886 26.2655L68.9312 26.5547ZM71.5149 1.93825H84.3044V-0.127232H71.5149V1.93825ZM83.2801 1.03705L85.0275 14.6444L87.0761 14.3814L85.3287 0.773969L83.2801 1.03705ZM86.0518 15.5456H86.2005V13.4802H86.0518V15.5456ZM87.157 14.9023L92.6966 1.29491L90.7836 0.516108L85.244 14.1235L87.157 14.9023ZM91.7401 1.93825H104.604V-0.127232H91.7401V1.93825ZM125.829 1.64908L125.328 2.55186L125.338 2.55725L125.347 2.56242L125.829 1.64908ZM127.911 3.58237L128.795 3.0471L128.795 3.0471L127.911 3.58237ZM127.168 10.8694L126.412 10.1659L126.403 10.1756L127.168 10.8694ZM123.524 13.1001L123.238 12.1077L122.667 12.2725L122.522 12.8496L123.524 13.1001ZM123.487 13.2488L122.485 12.9984L122.234 14.0024L123.239 14.2513L123.487 13.2488ZM126.536 22.2461L127.445 22.7368L127.449 22.7293L126.536 22.2461ZM123.673 25.2575L123.129 24.3798L123.121 24.3848L123.673 25.2575ZM105.232 26.4101L104.21 26.2655L104.043 27.4428H105.232V26.4101ZM108.839 0.905509V-0.127232H107.942L107.816 0.760918L108.839 0.905509ZM115.234 6.3336V5.30085H114.332L114.21 6.19367L115.234 6.3336ZM114.639 10.6835L113.615 10.5436L113.455 11.7162H114.639V10.6835ZM120.327 10.1258L119.666 9.33245L119.666 9.33245L120.327 10.1258ZM121.033 8.82457L120.004 8.7388L120.003 8.75588L120.002 8.773L121.033 8.82457ZM121.108 7.93228L122.137 8.01804L122.141 7.97524V7.93228H121.108ZM120.662 6.77974L119.931 7.51L119.931 7.51L120.662 6.77974ZM113.858 16.1116V15.0788H112.956L112.835 15.9728L113.858 16.1116ZM113.263 20.4987L112.24 20.3599L112.081 21.5314H113.263V20.4987ZM120.104 18.6397L119.075 18.5574L119.073 18.5728L119.073 18.5882L120.104 18.6397ZM120.178 17.7103L121.208 17.7926L121.211 17.7515V17.7103H120.178ZM122.818 1.93825C123.775 1.93825 124.603 2.14913 125.328 2.55186L126.331 0.746306C125.271 0.157602 124.092 -0.127232 122.818 -0.127232V1.93825ZM125.347 2.56242C126.084 2.951 126.635 3.46868 127.028 4.11765L128.795 3.0471C128.197 2.06021 127.36 1.28902 126.312 0.735743L125.347 2.56242ZM127.028 4.11765C127.42 4.76397 127.622 5.49382 127.622 6.3336H129.688C129.688 5.14093 129.394 4.03664 128.795 3.0471L127.028 4.11765ZM127.622 6.3336C127.622 8.12245 127.171 9.34929 126.412 10.166L127.924 11.5728C129.147 10.2579 129.688 8.46089 129.688 6.3336H127.622ZM126.403 10.1756C125.573 11.091 124.528 11.7363 123.238 12.1077L123.81 14.0925C125.446 13.6212 126.83 12.7794 127.933 11.5632L126.403 10.1756ZM122.522 12.8496L122.485 12.9984L124.489 13.4993L124.526 13.3506L122.522 12.8496ZM123.239 14.2513C124.434 14.5472 125.223 15.0401 125.721 15.6607C126.216 16.2781 126.507 17.1289 126.507 18.3051H128.572C128.572 16.7797 128.188 15.437 127.332 14.3689C126.479 13.3041 125.242 12.6196 123.736 12.2464L123.239 14.2513ZM126.507 18.3051C126.507 19.4915 126.218 20.6401 125.623 21.7629L127.449 22.7293C128.193 21.3239 128.572 19.8452 128.572 18.3051H126.507ZM125.627 21.7554C125.047 22.8303 124.221 23.7029 123.129 24.3798L124.217 26.1353C125.604 25.2754 126.687 24.1404 127.445 22.7368L125.627 21.7554ZM123.121 24.3848C122.091 25.0363 120.875 25.3773 119.435 25.3773V27.4428C121.217 27.4428 122.826 27.0155 124.225 26.1303L123.121 24.3848ZM119.435 25.3773H105.232V27.4428H119.435V25.3773ZM106.255 26.5547L109.861 1.0501L107.816 0.760918L104.21 26.2655L106.255 26.5547ZM108.839 1.93825H122.818V-0.127232H108.839V1.93825ZM114.21 6.19367L113.615 10.5436L115.662 10.8234L116.257 6.47352L114.21 6.19367ZM114.639 11.7162H118.914V9.65076H114.639V11.7162ZM118.914 11.7162C119.692 11.7162 120.39 11.4178 120.988 10.9192L119.666 9.33245C119.372 9.57743 119.128 9.65076 118.914 9.65076V11.7162ZM120.988 10.9192C121.615 10.3971 122.023 9.70952 122.065 8.87614L120.002 8.773C119.994 8.93105 119.932 9.11102 119.666 9.33245L120.988 10.9192ZM122.063 8.91033L122.137 8.01804L120.079 7.84651L120.004 8.7388L122.063 8.91033ZM122.141 7.93228C122.141 7.22325 121.907 6.56452 121.392 6.04948L119.931 7.51C120.011 7.58982 120.075 7.69944 120.075 7.93228H122.141ZM121.392 6.04948C120.877 5.53445 120.218 5.30085 119.509 5.30085V7.36634C119.742 7.36634 119.852 7.43017 119.931 7.51L121.392 6.04948ZM119.509 5.30085H115.234V7.36634H119.509V5.30085ZM112.835 15.9728L112.24 20.3599L114.286 20.6374L114.881 16.2504L112.835 15.9728ZM113.263 21.5314H117.985V19.4659H113.263V21.5314ZM117.985 21.5314C118.762 21.5314 119.46 21.233 120.059 20.7344L118.736 19.1476C118.442 19.3926 118.199 19.4659 117.985 19.4659V21.5314ZM120.059 20.7344C120.685 20.2122 121.094 19.5247 121.135 18.6913L119.073 18.5882C119.065 18.7462 119.002 18.9262 118.736 19.1476L120.059 20.7344ZM121.133 18.7221L121.208 17.7926L119.149 17.6279L119.075 18.5574L121.133 18.7221ZM121.211 17.7103C121.211 17.0012 120.977 16.3425 120.462 15.8275L119.002 17.288C119.082 17.3678 119.146 17.4774 119.146 17.7103H121.211ZM120.462 15.8275C119.947 15.3124 119.289 15.0788 118.58 15.0788V17.1443C118.812 17.1443 118.922 17.2082 119.002 17.288L120.462 15.8275ZM118.58 15.0788H113.858V17.1443H118.58V15.0788ZM146.361 0.905509L147.384 1.05156L147.552 -0.127232H146.361V0.905509ZM145.581 6.37077V7.40351H146.476L146.603 6.51683L145.581 6.37077ZM142.569 6.37077V5.33803H141.672L141.546 6.22692L142.569 6.37077ZM140.524 20.9076L139.502 20.7638L139.336 21.9404H140.524V20.9076ZM143.536 20.9076L144.558 21.0527L144.725 19.8749H143.536V20.9076ZM142.755 26.4101V27.4428H143.652L143.778 26.5552L142.755 26.4101ZM128.85 26.4101L127.828 26.265L127.661 27.4428H128.85V26.4101ZM129.631 20.9076V19.8749H128.734L128.608 20.7626L129.631 20.9076ZM132.642 20.9076V21.9404H133.54L133.665 21.0515L132.642 20.9076ZM134.687 6.37077L135.71 6.51463L135.875 5.33803H134.687V6.37077ZM131.676 6.37077L130.653 6.22472L130.485 7.40351H131.676V6.37077ZM132.457 0.905509V-0.127232H131.561L131.434 0.759457L132.457 0.905509ZM145.339 0.759457L144.558 6.22472L146.603 6.51683L147.384 1.05156L145.339 0.759457ZM145.581 5.33803H142.569V7.40351H145.581V5.33803ZM141.546 6.22692L139.502 20.7638L141.547 21.0515L143.592 6.51463L141.546 6.22692ZM140.524 21.9404H143.536V19.8749H140.524V21.9404ZM142.513 20.7626L141.733 26.265L143.778 26.5552L144.558 21.0527L142.513 20.7626ZM142.755 25.3773H128.85V27.4428H142.755V25.3773ZM129.873 26.5552L130.653 21.0527L128.608 20.7626L127.828 26.265L129.873 26.5552ZM129.631 21.9404H132.642V19.8749H129.631V21.9404ZM133.665 21.0515L135.71 6.51463L133.665 6.22692L131.62 20.7638L133.665 21.0515ZM134.687 5.33803H131.676V7.40351H134.687V5.33803ZM132.698 6.51683L133.479 1.05156L131.434 0.759457L130.653 6.22472L132.698 6.51683ZM132.457 1.93825H146.361V-0.127232H132.457V1.93825ZM21.1918 39.6491L20.6903 40.5519L20.7 40.5572L20.7098 40.5624L21.1918 39.6491ZM23.2739 41.5824L24.157 41.0471L24.157 41.0471L23.2739 41.5824ZM22.5303 48.8694L21.7741 48.1659L21.7653 48.1756L22.5303 48.8694ZM18.8868 51.1001L18.6008 50.1077L18.0292 50.2725L17.8849 50.8496L18.8868 51.1001ZM18.8496 51.2488L17.8477 50.9984L17.5967 52.0024L18.6013 52.2513L18.8496 51.2488ZM21.8982 60.2461L22.807 60.7368L22.811 60.7293L21.8982 60.2461ZM19.0355 63.2575L18.4913 62.3798L18.4833 62.3848L19.0355 63.2575ZM0.594859 64.4101L-0.42771 64.2655L-0.594184 65.4428H0.594859V64.4101ZM4.20119 38.9055V37.8728H3.30421L3.17862 38.7609L4.20119 38.9055ZM10.5959 44.3336V43.3009H9.6948L9.57271 44.1937L10.5959 44.3336ZM10.0011 48.6835L8.97785 48.5436L8.81748 49.7162H10.0011V48.6835ZM15.6894 48.1258L15.0283 47.3324L15.0283 47.3324L15.6894 48.1258ZM16.3958 46.8246L15.3666 46.7388L15.3652 46.7559L15.3643 46.773L16.3958 46.8246ZM16.4702 45.9323L17.4993 46.018L17.5029 45.9752V45.9323H16.4702ZM16.024 44.7797L15.2937 45.51L15.2938 45.51L16.024 44.7797ZM9.22031 54.1116V53.0788H8.31815L8.19694 53.9728L9.22031 54.1116ZM8.62545 58.4987L7.60208 58.3599L7.44323 59.5314H8.62545V58.4987ZM15.4663 56.6397L14.4369 56.5574L14.4356 56.5728L14.4349 56.5882L15.4663 56.6397ZM15.5407 55.7103L16.5701 55.7926L16.5734 55.7515V55.7103H15.5407ZM18.1804 39.9382C19.1369 39.9382 19.9654 40.1491 20.6903 40.5519L21.6934 38.7463C20.6337 38.1576 19.4546 37.8728 18.1804 37.8728V39.9382ZM20.7098 40.5624C21.4461 40.951 21.9973 41.4687 22.3907 42.1176L24.157 41.0471C23.5589 40.0602 22.7222 39.289 21.6739 38.7357L20.7098 40.5624ZM22.3907 42.1176C22.7824 42.764 22.9847 43.4938 22.9847 44.3336H25.0502C25.0502 43.1409 24.7568 42.0366 24.157 41.0471L22.3907 42.1176ZM22.9847 44.3336C22.9847 46.1225 22.5338 47.3493 21.7741 48.166L23.2864 49.5728C24.5096 48.2579 25.0502 46.4609 25.0502 44.3336H22.9847ZM21.7653 48.1756C20.9351 49.091 19.89 49.7363 18.6008 50.1077L19.1727 52.0925C20.8083 51.6212 22.1922 50.7794 23.2952 49.5632L21.7653 48.1756ZM17.8849 50.8496L17.8477 50.9984L19.8515 51.4993L19.8887 51.3506L17.8849 50.8496ZM18.6013 52.2513C19.7961 52.5472 20.5857 53.0401 21.0831 53.6607C21.5779 54.2781 21.8693 55.1289 21.8693 56.3051H23.9348C23.9348 54.7797 23.5508 53.437 22.6948 52.3689C21.8414 51.3041 20.6047 50.6196 19.0979 50.2464L18.6013 52.2513ZM21.8693 56.3051C21.8693 57.4915 21.5799 58.6401 20.9855 59.7629L22.811 60.7293C23.555 59.3239 23.9348 57.8452 23.9348 56.3051H21.8693ZM20.9895 59.7554C20.4091 60.8303 19.583 61.7029 18.4913 62.3798L19.5797 64.1353C20.9665 63.2754 22.049 62.1404 22.807 60.7368L20.9895 59.7554ZM18.4833 62.3848C17.4535 63.0363 16.2371 63.3773 14.7971 63.3773V65.4428C16.5793 65.4428 18.1885 65.0155 19.5876 64.1303L18.4833 62.3848ZM14.7971 63.3773H0.594859V65.4428H14.7971V63.3773ZM1.61743 64.5547L5.22376 39.0501L3.17862 38.7609L-0.42771 64.2655L1.61743 64.5547ZM4.20119 39.9382H18.1804V37.8728H4.20119V39.9382ZM9.57271 44.1937L8.97785 48.5436L11.0243 48.8234L11.6191 44.4735L9.57271 44.1937ZM10.0011 49.7162H14.2766V47.6508H10.0011V49.7162ZM14.2766 49.7162C15.0541 49.7162 15.7522 49.4178 16.3505 48.9192L15.0283 47.3324C14.7343 47.5774 14.4905 47.6508 14.2766 47.6508V49.7162ZM16.3505 48.9192C16.9771 48.3971 17.3856 47.7095 17.4272 46.8761L15.3643 46.773C15.3564 46.931 15.294 47.111 15.0283 47.3324L16.3505 48.9192ZM17.425 46.9103L17.4993 46.018L15.441 45.8465L15.3666 46.7388L17.425 46.9103ZM17.5029 45.9323C17.5029 45.2233 17.2693 44.5645 16.7543 44.0495L15.2938 45.51C15.3736 45.5898 15.4374 45.6994 15.4374 45.9323H17.5029ZM16.7543 44.0495C16.2392 43.5344 15.5805 43.3009 14.8715 43.3009V45.3663C15.1043 45.3663 15.2139 45.4302 15.2937 45.51L16.7543 44.0495ZM14.8715 43.3009H10.5959V45.3663H14.8715V43.3009ZM8.19694 53.9728L7.60208 58.3599L9.64883 58.6374L10.2437 54.2504L8.19694 53.9728ZM8.62545 59.5314H13.3471V57.4659H8.62545V59.5314ZM13.3471 59.5314C14.1247 59.5314 14.8228 59.233 15.4211 58.7344L14.0988 57.1476C13.8048 57.3926 13.5611 57.4659 13.3471 57.4659V59.5314ZM15.4211 58.7344C16.0477 58.2122 16.4561 57.5247 16.4978 56.6913L14.4349 56.5882C14.427 56.7462 14.3645 56.9262 14.0988 57.1476L15.4211 58.7344ZM16.4958 56.7221L16.5701 55.7926L14.5112 55.6279L14.4369 56.5574L16.4958 56.7221ZM16.5734 55.7103C16.5734 55.0012 16.3398 54.3425 15.8248 53.8275L14.3643 55.288C14.4441 55.3678 14.5079 55.4774 14.5079 55.7103H16.5734ZM15.8248 53.8275C15.3098 53.3124 14.651 53.0788 13.942 53.0788V55.1443C14.1748 55.1443 14.2845 55.2082 14.3643 55.288L15.8248 53.8275ZM13.942 53.0788H9.22031V55.1443H13.942V53.0788ZM104.604 38.9055L105.627 39.0501L105.793 37.8728H104.604V38.9055ZM100.998 64.4101V65.4428H101.895L102.02 64.5547L100.998 64.4101ZM93.1901 64.4101L92.1674 64.266L92.0016 65.4428H93.1901V64.4101ZM95.4952 48.0515L96.5178 48.1956L96.6836 47.0187H95.4952V48.0515ZM95.3464 48.0515V47.0187H94.656L94.3921 47.6567L95.3464 48.0515ZM88.5799 64.4101V65.4428H89.2704L89.5343 64.8048L88.5799 64.4101ZM79.6199 64.4101L78.5957 64.5428L78.7123 65.4428H79.6199V64.4101ZM77.5007 48.0515L78.5249 47.9188L78.4083 47.0187H77.5007V48.0515ZM77.3148 48.0515V47.0187H76.4174L76.2922 47.9074L77.3148 48.0515ZM75.0097 64.4101V65.4428H75.9071L76.0324 64.5542L75.0097 64.4101ZM67.9086 64.4101L66.886 64.2655L66.7195 65.4428H67.9086V64.4101ZM71.5149 38.9055V37.8728H70.6179L70.4923 38.7609L71.5149 38.9055ZM84.3044 38.9055L85.3287 38.774L85.213 37.8728H84.3044V38.9055ZM86.0518 52.5129L85.0275 52.6444L85.1432 53.5456H86.0518V52.5129ZM86.2005 52.5129V53.5456H86.8951L87.157 52.9023L86.2005 52.5129ZM91.7401 38.9055V37.8728H91.0455L90.7836 38.5161L91.7401 38.9055ZM103.581 38.7609L99.975 64.2655L102.02 64.5547L105.627 39.0501L103.581 38.7609ZM100.998 63.3773H93.1901V65.4428H100.998V63.3773ZM94.2127 64.5542L96.5178 48.1956L94.4725 47.9074L92.1674 64.266L94.2127 64.5542ZM95.4952 47.0187H95.3464V49.0842H95.4952V47.0187ZM94.3921 47.6567L87.6256 64.0153L89.5343 64.8048L96.3008 48.4462L94.3921 47.6567ZM88.5799 63.3773H79.6199V65.4428H88.5799V63.3773ZM80.6441 64.2774L78.5249 47.9188L76.4765 48.1841L78.5957 64.5428L80.6441 64.2774ZM77.5007 47.0187H77.3148V49.0842H77.5007V47.0187ZM76.2922 47.9074L73.9871 64.266L76.0324 64.5542L78.3374 48.1956L76.2922 47.9074ZM75.0097 63.3773H67.9086V65.4428H75.0097V63.3773ZM68.9312 64.5547L72.5375 39.0501L70.4923 38.7609L66.886 64.2655L68.9312 64.5547ZM71.5149 39.9382H84.3044V37.8728H71.5149V39.9382ZM83.2801 39.037L85.0275 52.6444L87.0761 52.3814L85.3287 38.774L83.2801 39.037ZM86.0518 53.5456H86.2005V51.4802H86.0518V53.5456ZM87.157 52.9023L92.6966 39.2949L90.7836 38.5161L85.244 52.1235L87.157 52.9023ZM91.7401 39.9382H104.604V37.8728H91.7401V39.9382ZM125.829 39.6491L125.328 40.5519L125.338 40.5572L125.347 40.5624L125.829 39.6491ZM127.911 41.5824L128.795 41.0471L128.795 41.0471L127.911 41.5824ZM127.168 48.8694L126.412 48.1659L126.403 48.1756L127.168 48.8694ZM123.524 51.1001L123.238 50.1077L122.667 50.2725L122.522 50.8496L123.524 51.1001ZM123.487 51.2488L122.485 50.9984L122.234 52.0024L123.239 52.2513L123.487 51.2488ZM126.536 60.2461L127.445 60.7368L127.449 60.7293L126.536 60.2461ZM123.673 63.2575L123.129 62.3798L123.121 62.3848L123.673 63.2575ZM105.232 64.4101L104.21 64.2655L104.043 65.4428H105.232V64.4101ZM108.839 38.9055V37.8728H107.942L107.816 38.7609L108.839 38.9055ZM115.234 44.3336V43.3009H114.332L114.21 44.1937L115.234 44.3336ZM114.639 48.6835L113.615 48.5436L113.455 49.7162H114.639V48.6835ZM120.327 48.1258L119.666 47.3324L119.666 47.3324L120.327 48.1258ZM121.033 46.8246L120.004 46.7388L120.003 46.7559L120.002 46.773L121.033 46.8246ZM121.108 45.9323L122.137 46.018L122.141 45.9752V45.9323H121.108ZM120.662 44.7797L119.931 45.51L119.931 45.51L120.662 44.7797ZM113.858 54.1116V53.0788H112.956L112.835 53.9728L113.858 54.1116ZM113.263 58.4987L112.24 58.3599L112.081 59.5314H113.263V58.4987ZM120.104 56.6397L119.075 56.5574L119.073 56.5728L119.073 56.5882L120.104 56.6397ZM120.178 55.7103L121.208 55.7926L121.211 55.7515V55.7103H120.178ZM122.818 39.9382C123.775 39.9382 124.603 40.1491 125.328 40.5519L126.331 38.7463C125.271 38.1576 124.092 37.8728 122.818 37.8728V39.9382ZM125.347 40.5624C126.084 40.951 126.635 41.4687 127.028 42.1176L128.795 41.0471C128.197 40.0602 127.36 39.289 126.312 38.7357L125.347 40.5624ZM127.028 42.1176C127.42 42.764 127.622 43.4938 127.622 44.3336H129.688C129.688 43.1409 129.394 42.0366 128.795 41.0471L127.028 42.1176ZM127.622 44.3336C127.622 46.1225 127.171 47.3493 126.412 48.166L127.924 49.5728C129.147 48.2579 129.688 46.4609 129.688 44.3336H127.622ZM126.403 48.1756C125.573 49.091 124.528 49.7363 123.238 50.1077L123.81 52.0925C125.446 51.6212 126.83 50.7794 127.933 49.5632L126.403 48.1756ZM122.522 50.8496L122.485 50.9984L124.489 51.4993L124.526 51.3506L122.522 50.8496ZM123.239 52.2513C124.434 52.5472 125.223 53.0401 125.721 53.6607C126.216 54.2781 126.507 55.1289 126.507 56.3051H128.572C128.572 54.7797 128.188 53.437 127.332 52.3689C126.479 51.3041 125.242 50.6196 123.736 50.2464L123.239 52.2513ZM126.507 56.3051C126.507 57.4915 126.218 58.6401 125.623 59.7629L127.449 60.7293C128.193 59.3239 128.572 57.8452 128.572 56.3051H126.507ZM125.627 59.7554C125.047 60.8303 124.221 61.7029 123.129 62.3798L124.217 64.1353C125.604 63.2754 126.687 62.1404 127.445 60.7368L125.627 59.7554ZM123.121 62.3848C122.091 63.0363 120.875 63.3773 119.435 63.3773V65.4428C121.217 65.4428 122.826 65.0155 124.225 64.1303L123.121 62.3848ZM119.435 63.3773H105.232V65.4428H119.435V63.3773ZM106.255 64.5547L109.861 39.0501L107.816 38.7609L104.21 64.2655L106.255 64.5547ZM108.839 39.9382H122.818V37.8728H108.839V39.9382ZM114.21 44.1937L113.615 48.5436L115.662 48.8234L116.257 44.4735L114.21 44.1937ZM114.639 49.7162H118.914V47.6508H114.639V49.7162ZM118.914 49.7162C119.692 49.7162 120.39 49.4178 120.988 48.9192L119.666 47.3324C119.372 47.5774 119.128 47.6508 118.914 47.6508V49.7162ZM120.988 48.9192C121.615 48.3971 122.023 47.7095 122.065 46.8761L120.002 46.773C119.994 46.931 119.932 47.111 119.666 47.3324L120.988 48.9192ZM122.063 46.9103L122.137 46.018L120.079 45.8465L120.004 46.7388L122.063 46.9103ZM122.141 45.9323C122.141 45.2233 121.907 44.5645 121.392 44.0495L119.931 45.51C120.011 45.5898 120.075 45.6994 120.075 45.9323H122.141ZM121.392 44.0495C120.877 43.5344 120.218 43.3009 119.509 43.3009V45.3663C119.742 45.3663 119.852 45.4302 119.931 45.51L121.392 44.0495ZM119.509 43.3009H115.234V45.3663H119.509V43.3009ZM112.835 53.9728L112.24 58.3599L114.286 58.6374L114.881 54.2504L112.835 53.9728ZM113.263 59.5314H117.985V57.4659H113.263V59.5314ZM117.985 59.5314C118.762 59.5314 119.46 59.233 120.059 58.7344L118.736 57.1476C118.442 57.3926 118.199 57.4659 117.985 57.4659V59.5314ZM120.059 58.7344C120.685 58.2122 121.094 57.5247 121.135 56.6913L119.073 56.5882C119.065 56.7462 119.002 56.9262 118.736 57.1476L120.059 58.7344ZM121.133 56.7221L121.208 55.7926L119.149 55.6279L119.075 56.5574L121.133 56.7221ZM121.211 55.7103C121.211 55.0012 120.977 54.3425 120.462 53.8275L119.002 55.288C119.082 55.3678 119.146 55.4774 119.146 55.7103H121.211ZM120.462 53.8275C119.947 53.3124 119.289 53.0788 118.58 53.0788V55.1443C118.812 55.1443 118.922 55.2082 119.002 55.288L120.462 53.8275ZM118.58 53.0788H113.858V55.1443H118.58V53.0788ZM146.361 38.9055L147.384 39.0516L147.552 37.8728H146.361V38.9055ZM145.581 44.3708V45.4035H146.476L146.603 44.5168L145.581 44.3708ZM142.569 44.3708V43.338H141.672L141.546 44.2269L142.569 44.3708ZM140.524 58.9076L139.502 58.7638L139.336 59.9404H140.524V58.9076ZM143.536 58.9076L144.558 59.0527L144.725 57.8749H143.536V58.9076ZM142.755 64.4101V65.4428H143.652L143.778 64.5552L142.755 64.4101ZM128.85 64.4101L127.828 64.265L127.661 65.4428H128.85V64.4101ZM129.631 58.9076V57.8749H128.734L128.608 58.7626L129.631 58.9076ZM132.642 58.9076V59.9404H133.54L133.665 59.0515L132.642 58.9076ZM134.687 44.3708L135.71 44.5146L135.875 43.338H134.687V44.3708ZM131.676 44.3708L130.653 44.2247L130.485 45.4035H131.676V44.3708ZM132.457 38.9055V37.8728H131.561L131.434 38.7595L132.457 38.9055ZM145.339 38.7595L144.558 44.2247L146.603 44.5168L147.384 39.0516L145.339 38.7595ZM145.581 43.338H142.569V45.4035H145.581V43.338ZM141.546 44.2269L139.502 58.7638L141.547 59.0515L143.592 44.5146L141.546 44.2269ZM140.524 59.9404H143.536V57.8749H140.524V59.9404ZM142.513 58.7626L141.733 64.265L143.778 64.5552L144.558 59.0527L142.513 58.7626ZM142.755 63.3773H128.85V65.4428H142.755V63.3773ZM129.873 64.5552L130.653 59.0527L128.608 58.7626L127.828 64.265L129.873 64.5552ZM129.631 59.9404H132.642V57.8749H129.631V59.9404ZM133.665 59.0515L135.71 44.5146L133.665 44.2269L131.62 58.7638L133.665 59.0515ZM134.687 43.338H131.676V45.4035H134.687V43.338ZM132.698 44.5168L133.479 39.0516L131.434 38.7595L130.653 44.2247L132.698 44.5168ZM132.457 39.9382H146.361V37.8728H132.457V39.9382Z" fill="black"/>
</svg>
