<svg width="90" height="84" viewBox="0 0 90 84" fill="none" xmlns="http://www.w3.org/2000/svg">
<path d="M15.462 62.9824C15.462 62.9824 3.91833 55.3696 0.933647 43.1354C0.933647 43.1354 -1.90163 34.3341 3.44025 22.8104C3.44025 22.8104 7.98201 11.4195 22.8091 5.12144C22.8091 5.12144 37.6429 -2.96276 58.9042 2.24632C58.9042 2.24632 77.6954 6.05104 86.5133 22.8336C86.5133 22.8336 97.5191 40.6189 79.3852 59.3005C79.3852 59.3005 66.3742 72.3548 43.6355 71.8269C43.6355 71.8269 39.4191 71.88 37.1084 71.3256C37.1084 71.3256 36.544 71.1064 36.3215 71.3056L19.2999 83.1813C19.2999 83.1813 16.3185 84.9774 17.9686 80.004L21.418 67.1822C21.418 67.1822 21.584 66.7473 21.2454 66.5846C21.2454 66.5846 16.282 63.8157 15.462 62.9791V62.9824Z" fill="#181600"/>
</svg>
