<svg width="148" height="78" viewBox="0 0 148 78" fill="none" xmlns="http://www.w3.org/2000/svg">
<path d="M18.1804 7.49543C19.2957 7.49543 20.2996 7.74329 21.1918 8.239C22.0841 8.70993 22.7781 9.35436 23.2739 10.1723C23.7696 10.9902 24.0174 11.9073 24.0174 12.9235C24.0174 14.8816 23.5217 16.3935 22.5303 17.4593C21.5636 18.5251 20.3491 19.2687 18.8868 19.69L18.8496 19.8387C21.5512 20.508 22.9021 22.1934 22.9021 24.895C22.9021 26.2583 22.5675 27.5719 21.8982 28.836C21.229 30.0753 20.2748 31.0791 19.0355 31.8475C17.821 32.6158 16.4082 33 14.7971 33H0.594859L4.20119 7.49543H18.1804ZM10.5959 12.9235L10.0011 17.2734H14.2766C14.7723 17.2734 15.2433 17.0875 15.6894 16.7157C16.1355 16.344 16.371 15.9102 16.3958 15.4145L16.4702 14.5222C16.4702 14.0513 16.3214 13.6671 16.024 13.3697C15.7266 13.0722 15.3424 12.9235 14.8715 12.9235H10.5959ZM9.22031 22.7015L8.62545 27.0886H13.3471C13.8429 27.0886 14.3138 26.9027 14.7599 26.5309C15.2061 26.1591 15.4415 25.7254 15.4663 25.2297L15.5407 24.3002C15.5407 23.8293 15.392 23.4451 15.0945 23.1477C14.7971 22.8502 14.4129 22.7015 13.942 22.7015H9.22031ZM104.604 7.49543L100.998 33H93.1901L95.4952 16.6414H95.3464L88.5799 33H79.6199L77.5007 16.6414H77.3148L75.0097 33H67.9086L71.5149 7.49543H84.3044L86.0518 21.1028H86.2005L91.7401 7.49543H104.604ZM122.818 7.49543C123.933 7.49543 124.937 7.74329 125.829 8.239C126.722 8.70993 127.416 9.35436 127.911 10.1723C128.407 10.9902 128.655 11.9073 128.655 12.9235C128.655 14.8816 128.159 16.3935 127.168 17.4593C126.201 18.5251 124.987 19.2687 123.524 19.69L123.487 19.8387C126.189 20.508 127.54 22.1934 127.54 24.895C127.54 26.2583 127.205 27.5719 126.536 28.836C125.867 30.0753 124.912 31.0791 123.673 31.8475C122.459 32.6158 121.046 33 119.435 33H105.232L108.839 7.49543H122.818ZM115.234 12.9235L114.639 17.2734H118.914C119.41 17.2734 119.881 17.0875 120.327 16.7157C120.773 16.344 121.009 15.9102 121.033 15.4145L121.108 14.5222C121.108 14.0513 120.959 13.6671 120.662 13.3697C120.364 13.0722 119.98 12.9235 119.509 12.9235H115.234ZM113.858 22.7015L113.263 27.0886H117.985C118.48 27.0886 118.951 26.9027 119.398 26.5309C119.844 26.1591 120.079 25.7254 120.104 25.2297L120.178 24.3002C120.178 23.8293 120.03 23.4451 119.732 23.1477C119.435 22.8502 119.051 22.7015 118.58 22.7015H113.858ZM18.1804 45.4954C19.2957 45.4954 20.2996 45.7433 21.1918 46.239C22.0841 46.7099 22.7781 47.3544 23.2739 48.1723C23.7696 48.9902 24.0174 49.9073 24.0174 50.9235C24.0174 52.8816 23.5217 54.3935 22.5303 55.4593C21.5636 56.5251 20.3491 57.2687 18.8868 57.69L18.8496 57.8387C21.5512 58.508 22.9021 60.1934 22.9021 62.895C22.9021 64.2583 22.5675 65.5719 21.8982 66.836C21.229 68.0753 20.2748 69.0791 19.0355 69.8475C17.821 70.6158 16.4082 71 14.7971 71H0.594859L4.20119 45.4954H18.1804ZM10.5959 50.9235L10.0011 55.2734H14.2766C14.7723 55.2734 15.2433 55.0875 15.6894 54.7157C16.1355 54.344 16.371 53.9102 16.3958 53.4145L16.4702 52.5222C16.4702 52.0513 16.3214 51.6671 16.024 51.3697C15.7266 51.0722 15.3424 50.9235 14.8715 50.9235H10.5959ZM9.22031 60.7015L8.62545 65.0886H13.3471C13.8429 65.0886 14.3138 64.9027 14.7599 64.5309C15.2061 64.1591 15.4415 63.7254 15.4663 63.2297L15.5407 62.3002C15.5407 61.8293 15.392 61.4451 15.0945 61.1477C14.7971 60.8502 14.4129 60.7015 13.942 60.7015H9.22031ZM104.604 45.4954L100.998 71H93.1901L95.4952 54.6414H95.3464L88.5799 71H79.6199L77.5007 54.6414H77.3148L75.0097 71H67.9086L71.5149 45.4954H84.3044L86.0518 59.1028H86.2005L91.7401 45.4954H104.604ZM122.818 45.4954C123.933 45.4954 124.937 45.7433 125.829 46.239C126.722 46.7099 127.416 47.3544 127.911 48.1723C128.407 48.9902 128.655 49.9073 128.655 50.9235C128.655 52.8816 128.159 54.3935 127.168 55.4593C126.201 56.5251 124.987 57.2687 123.524 57.69L123.487 57.8387C126.189 58.508 127.54 60.1934 127.54 62.895C127.54 64.2583 127.205 65.5719 126.536 66.836C125.867 68.0753 124.912 69.0791 123.673 69.8475C122.459 70.6158 121.046 71 119.435 71H105.232L108.839 45.4954H122.818ZM115.234 50.9235L114.639 55.2734H118.914C119.41 55.2734 119.881 55.0875 120.327 54.7157C120.773 54.344 121.009 53.9102 121.033 53.4145L121.108 52.5222C121.108 52.0513 120.959 51.6671 120.662 51.3697C120.364 51.0722 119.98 50.9235 119.509 50.9235H115.234ZM113.858 60.7015L113.263 65.0886H117.985C118.48 65.0886 118.951 64.9027 119.398 64.5309C119.844 64.1591 120.079 63.7254 120.104 63.2297L120.178 62.3002C120.178 61.8293 120.03 61.4451 119.732 61.1477C119.435 60.8502 119.051 60.7015 118.58 60.7015H113.858Z" fill="#7F73FF"/>
<path d="M146.361 7.49543L145.581 12.9607H142.569L140.524 27.4976H143.536L142.755 33H128.85L129.631 27.4976H132.642L134.687 12.9607H131.676L132.457 7.49543H146.361ZM146.361 45.4954L145.581 50.9607H142.569L140.524 65.4976H143.536L142.755 71H128.85L129.631 65.4976H132.642L134.687 50.9607H131.676L132.457 45.4954H146.361Z" fill="#FFB800"/>
<path d="M30.3662 32.5796C24.7949 29.4871 25.412 22.0399 25.9592 17.8455C27.364 8.24576 33.4634 6.37935 37.0926 7.01678C41.629 7.81371 47.2964 10.2881 44.6803 22.8041C42.0642 35.32 32.7215 34.1643 30.3662 32.5796Z" fill="#7F73FF"/>
<path d="M30.1479 27.5606C26.8204 26.3855 26.7992 22.1245 26.901 19.7042C27.2208 14.1494 31.0764 13.015 32.8703 12.7433C34.5912 12.6207 38.6744 13.2678 37.8107 20.5901C36.947 27.9123 31.5686 28.2137 30.1479 27.5606Z" fill="white"/>
<ellipse rx="2.92441" ry="3.45548" transform="matrix(0.999761 -0.0315684 -0.00784229 0.999756 29.8029 19.7585)" fill="black"/>
<path d="M52.1071 32.7089C46.5357 29.6165 47.1528 22.1693 47.7001 17.9748C49.1049 8.37512 55.2043 6.50872 58.8334 7.14615C63.3699 7.94307 69.0372 10.4175 66.4212 22.9334C63.8051 35.4494 54.4624 34.2937 52.1071 32.7089Z" fill="#7F73FF"/>
<path d="M51.8885 27.6899C48.561 26.5149 48.5398 22.2538 48.6416 19.8335C48.9614 14.2788 52.817 13.1444 54.6109 12.8726C56.3318 12.7501 60.415 13.3972 59.5513 20.7194C58.6876 28.0417 53.3092 28.343 51.8885 27.6899Z" fill="white"/>
<ellipse rx="2.92441" ry="3.45548" transform="matrix(0.999761 -0.0315684 -0.00784229 0.999756 51.5316 19.8879)" fill="black"/>
<path d="M51.469 70.4902C45.8539 67.388 46.4564 59.9307 46.9968 55.7307C48.3868 46.1186 54.5211 44.2554 58.1754 44.8972C62.7433 45.6997 68.4535 48.1831 65.8516 60.7145C63.2497 73.2459 53.8436 72.0795 51.469 70.4902Z" fill="#7F73FF"/>
<path d="M57.4047 65.1804C54.0526 64.0004 54.0207 59.7333 54.1172 57.3096C54.4252 51.7472 58.303 50.6149 60.1078 50.3444C61.8396 50.2234 65.9509 50.8753 65.0998 58.2073C64.2488 65.5392 58.8362 65.8358 57.4047 65.1804Z" fill="white"/>
<ellipse rx="2.94393" ry="3.4595" transform="matrix(0.999493 -0.0304467 -0.00539832 1.00002 62.2038 57.3663)" fill="black"/>
<path d="M30.4553 70.4903C24.8401 67.3881 25.4426 59.9308 25.983 55.7308C27.373 46.1187 33.5073 44.2555 37.1616 44.8973C41.7295 45.6998 47.4397 48.1832 44.8378 60.7146C42.2359 73.246 32.8298 72.0796 30.4553 70.4903Z" fill="#7F73FF"/>
<path d="M36.4193 65.1804C33.0673 64.0005 33.0354 59.7333 33.1318 57.3096C33.4398 51.7472 37.3176 50.6149 39.1224 50.3445C40.8543 50.2234 44.9655 50.8754 44.1145 58.2073C43.2634 65.5392 37.8508 65.8358 36.4193 65.1804Z" fill="white"/>
<ellipse rx="2.94393" ry="3.4595" transform="matrix(0.999493 -0.0304467 -0.00539831 1.00002 41.2183 57.3665)" fill="black"/>
</svg>
