<svg width="500" height="500" viewBox="0 0 500 500" fill="none" xmlns="http://www.w3.org/2000/svg">
<path d="M450 0H50C22.3858 0 0 22.3858 0 50V450C0 477.614 22.3858 500 50 500H450C477.614 500 500 477.614 500 450V50C500 22.3858 477.614 0 450 0Z" fill="#FDE600"/>
<path d="M161.03 313.2C161.03 313.2 126.26 290.27 117.27 253.42C117.27 253.42 108.73 226.91 124.82 192.2C124.82 192.2 138.5 157.89 183.16 138.92C183.16 138.92 227.84 114.57 291.88 130.26C291.88 130.26 348.48 141.72 375.04 192.27C375.04 192.27 408.19 245.84 353.57 302.11C353.57 302.11 314.38 341.43 245.89 339.84C245.89 339.84 233.19 340 226.23 338.33C226.23 338.33 224.53 337.67 223.86 338.27L172.59 374.04C172.59 374.04 163.61 379.45 168.58 364.47L178.97 325.85C178.97 325.85 179.47 324.54 178.45 324.05C178.45 324.05 163.5 315.71 161.03 313.19V313.2Z" fill="#391B1B"/>
</svg>
