<svg width="145" height="21" viewBox="0 0 145 21" fill="none" xmlns="http://www.w3.org/2000/svg">
<path d="M8.802 4.652C9.342 4.652 9.828 4.772 10.26 5.012C10.692 5.24 11.028 5.552 11.268 5.948C11.508 6.344 11.628 6.788 11.628 7.28C11.628 8.228 11.388 8.96 10.908 9.476C10.44 9.992 9.852 10.352 9.144 10.556L9.126 10.628C10.434 10.952 11.088 11.768 11.088 13.076C11.088 13.736 10.926 14.372 10.602 14.984C10.278 15.584 9.816 16.07 9.216 16.442C8.628 16.814 7.944 17 7.164 17H0.288L2.034 4.652H8.802ZM5.13 7.28L4.842 9.386H6.912C7.152 9.386 7.38 9.296 7.596 9.116C7.812 8.936 7.926 8.726 7.938 8.486L7.974 8.054C7.974 7.826 7.902 7.64 7.758 7.496C7.614 7.352 7.428 7.28 7.2 7.28H5.13ZM4.464 12.014L4.176 14.138H6.462C6.702 14.138 6.93 14.048 7.146 13.868C7.362 13.688 7.476 13.478 7.488 13.238L7.524 12.788C7.524 12.56 7.452 12.374 7.308 12.23C7.164 12.086 6.978 12.014 6.75 12.014H4.464ZM50.6438 4.652L48.8978 17H45.1178L46.2338 9.08H46.1618L42.8858 17H38.5478L37.5218 9.08H37.4318L36.3158 17H32.8778L34.6238 4.652H40.8158L41.6618 11.24H41.7338L44.4158 4.652H50.6438ZM59.4622 4.652C60.0022 4.652 60.4882 4.772 60.9202 5.012C61.3522 5.24 61.6882 5.552 61.9282 5.948C62.1682 6.344 62.2882 6.788 62.2882 7.28C62.2882 8.228 62.0482 8.96 61.5682 9.476C61.1002 9.992 60.5122 10.352 59.8042 10.556L59.7862 10.628C61.0942 10.952 61.7482 11.768 61.7482 13.076C61.7482 13.736 61.5862 14.372 61.2622 14.984C60.9382 15.584 60.4762 16.07 59.8762 16.442C59.2882 16.814 58.6042 17 57.8242 17H50.9482L52.6942 4.652H59.4622ZM55.7902 7.28L55.5022 9.386H57.5722C57.8122 9.386 58.0402 9.296 58.2562 9.116C58.4722 8.936 58.5862 8.726 58.5982 8.486L58.6342 8.054C58.6342 7.826 58.5622 7.64 58.4182 7.496C58.2742 7.352 58.0882 7.28 57.8602 7.28H55.7902ZM55.1242 12.014L54.8362 14.138H57.1222C57.3622 14.138 57.5902 14.048 57.8062 13.868C58.0222 13.688 58.1362 13.478 58.1482 13.238L58.1842 12.788C58.1842 12.56 58.1122 12.374 57.9682 12.23C57.8242 12.086 57.6382 12.014 57.4102 12.014H55.1242ZM82.7708 4.652C83.3108 4.652 83.7968 4.772 84.2288 5.012C84.6608 5.24 84.9968 5.552 85.2368 5.948C85.4768 6.344 85.5968 6.788 85.5968 7.28C85.5968 8.228 85.3568 8.96 84.8768 9.476C84.4088 9.992 83.8208 10.352 83.1128 10.556L83.0948 10.628C84.4028 10.952 85.0568 11.768 85.0568 13.076C85.0568 13.736 84.8948 14.372 84.5708 14.984C84.2468 15.584 83.7848 16.07 83.1848 16.442C82.5968 16.814 81.9128 17 81.1328 17H74.2568L76.0028 4.652H82.7708ZM79.0988 7.28L78.8108 9.386H80.8808C81.1208 9.386 81.3488 9.296 81.5648 9.116C81.7808 8.936 81.8948 8.726 81.9068 8.486L81.9428 8.054C81.9428 7.826 81.8708 7.64 81.7268 7.496C81.5828 7.352 81.3968 7.28 81.1688 7.28H79.0988ZM78.4328 12.014L78.1448 14.138H80.4308C80.6708 14.138 80.8988 14.048 81.1148 13.868C81.3308 13.688 81.4448 13.478 81.4568 13.238L81.4928 12.788C81.4928 12.56 81.4208 12.374 81.2768 12.23C81.1328 12.086 80.9468 12.014 80.7188 12.014H78.4328ZM124.613 4.652L122.867 17H119.087L120.203 9.08H120.131L116.855 17H112.517L111.491 9.08H111.401L110.285 17H106.847L108.593 4.652H114.785L115.631 11.24H115.703L118.385 4.652H124.613ZM133.431 4.652C133.971 4.652 134.457 4.772 134.889 5.012C135.321 5.24 135.657 5.552 135.897 5.948C136.137 6.344 136.257 6.788 136.257 7.28C136.257 8.228 136.017 8.96 135.537 9.476C135.069 9.992 134.481 10.352 133.773 10.556L133.755 10.628C135.063 10.952 135.717 11.768 135.717 13.076C135.717 13.736 135.555 14.372 135.231 14.984C134.907 15.584 134.445 16.07 133.845 16.442C133.257 16.814 132.573 17 131.793 17H124.917L126.663 4.652H133.431ZM129.759 7.28L129.471 9.386H131.541C131.781 9.386 132.009 9.296 132.225 9.116C132.441 8.936 132.555 8.726 132.567 8.486L132.603 8.054C132.603 7.826 132.531 7.64 132.387 7.496C132.243 7.352 132.057 7.28 131.829 7.28H129.759ZM129.093 12.014L128.805 14.138H131.091C131.331 14.138 131.559 14.048 131.775 13.868C131.991 13.688 132.105 13.478 132.117 13.238L132.153 12.788C132.153 12.56 132.081 12.374 131.937 12.23C131.793 12.086 131.607 12.014 131.379 12.014H129.093Z" fill="#9853F0"/>
<path d="M70.8607 4.652L70.4827 7.298H69.0247L68.0347 14.336H69.4927L69.1147 17H62.3827L62.7607 14.336H64.2187L65.2087 7.298H63.7507L64.1287 4.652H70.8607ZM144.829 4.652L144.451 7.298H142.993L142.003 14.336H143.461L143.083 17H136.351L136.729 14.336H138.187L139.177 7.298H137.719L138.097 4.652H144.829Z" fill="#FFB800"/>
<path d="M14.9552 16.5049C12.2578 15.002 12.5566 11.3827 12.8215 9.34427C13.5017 4.67889 16.4547 3.77183 18.2117 4.08162C20.408 4.46892 23.1519 5.67145 21.8853 11.7541C20.6187 17.8368 16.0955 17.2751 14.9552 16.5049Z" fill="#9853F0"/>
<path d="M14.8495 14.0657C13.2385 13.4947 13.2282 11.4239 13.2775 10.2476C13.4323 7.54804 15.299 6.99673 16.1675 6.86465C17.0007 6.80511 18.9776 7.11958 18.5594 10.6781C18.1413 14.2367 15.5373 14.3831 14.8495 14.0657Z" fill="white"/>
<ellipse rx="1.41622" ry="1.67898" transform="matrix(0.999498 -0.0316802 -0.00781422 0.99997 14.6824 10.274)" fill="black"/>
<path d="M25.481 16.5678C22.7836 15.0649 23.0824 11.4456 23.3473 9.40717C24.0275 4.74179 26.9805 3.83473 28.7375 4.14452C30.9338 4.53182 33.6777 5.73435 32.4111 11.817C31.1445 17.8997 26.6213 17.338 25.481 16.5678Z" fill="#9853F0"/>
<path d="M25.3752 14.1286C23.7641 13.5575 23.7539 11.4867 23.8032 10.3105C23.958 7.6109 25.8247 7.0596 26.6932 6.92752C27.5264 6.86797 29.5032 7.18245 29.0851 10.741C28.6669 14.2996 26.063 14.446 25.3752 14.1286Z" fill="white"/>
<ellipse rx="1.41622" ry="1.67898" transform="matrix(0.999498 -0.0316802 -0.00781422 0.99997 25.2024 10.3369)" fill="black"/>
<path d="M98.9983 16.697C96.2797 15.1894 96.5715 11.5652 96.8331 9.52406C97.5061 4.85264 100.476 3.94714 102.245 4.25907C104.457 4.64905 107.221 5.85596 105.962 11.9461C104.702 18.0363 100.148 17.4694 98.9983 16.697Z" fill="#9853F0"/>
<path d="M101.872 14.1165C100.249 13.5431 100.234 11.4693 100.28 10.2914C100.429 7.58809 102.307 7.0378 103.181 6.90637C104.019 6.84755 106.01 7.16439 105.598 10.7276C105.186 14.2909 102.565 14.435 101.872 14.1165Z" fill="white"/>
<ellipse rx="1.42567" ry="1.68093" transform="matrix(0.999232 -0.0305546 -0.00537899 1.00023 104.195 10.3189)" fill="black"/>
<path d="M88.8246 16.6971C86.106 15.1894 86.3977 11.5653 86.6593 9.52412C87.3323 4.85271 90.3022 3.9472 92.0714 4.25913C94.283 4.64911 97.0476 5.85602 95.7879 11.9462C94.5282 18.0363 89.9742 17.4695 88.8246 16.6971Z" fill="#9853F0"/>
<path d="M91.7121 14.1165C90.0892 13.5431 90.0737 11.4693 90.1204 10.2914C90.2695 7.58809 92.147 7.0378 93.0208 6.90637C93.8592 6.84755 95.8497 7.16439 95.4376 10.7276C95.0256 14.2909 92.4051 14.435 91.7121 14.1165Z" fill="white"/>
<ellipse rx="1.42567" ry="1.68093" transform="matrix(0.999232 -0.0305546 -0.00537899 1.00023 94.0355 10.319)" fill="black"/>
</svg>
