<svg width="105" height="210" viewBox="0 0 105 210" fill="none" xmlns="http://www.w3.org/2000/svg">
<g clipPath="url(#clip0_640_7100)">
<path d="M96.8075 195.439L11.4078 209.862C5.42723 210.875 -0.0131226 206.222 -0.0131226 200.093V24.3291C-0.0131226 19.4909 3.44207 15.3669 8.16625 14.5605L93.5785 0.138168C99.5591 -0.875546 104.999 3.77832 104.999 9.90668V185.671C104.999 190.509 101.544 194.633 96.8201 195.439H96.8075Z" fill="white"/>
<path d="M92.5236 188.562L15.4039 202.017C10.0138 202.962 5.08856 198.619 5.08856 192.905V28.983C5.08856 24.4674 8.21708 20.6199 12.4764 19.8711L89.5962 6.41637C94.9862 5.47177 99.9115 9.81461 99.9115 15.5283V179.45C99.9115 183.966 96.7829 187.814 92.5236 188.562Z" fill="#7F73FF"/>
<path d="M98.5922 73.5749L92.3351 79.3922L92.4105 90.4855C92.4105 91.8909 91.3174 93.1004 89.8097 93.3308L18.5072 104.343C16.61 104.631 14.8761 103.295 14.8636 101.533L14.7379 84.7603C14.7379 83.3549 15.831 82.1454 17.3513 81.915L88.6538 70.9024C90.5259 70.6144 92.2346 71.9046 92.2974 73.6325L98.3534 73.1141C98.6299 73.0911 98.7932 73.3906 98.5922 73.5749Z" fill="white"/>
<path d="M92.6116 118.213C92.6116 119.618 91.5185 120.816 89.9982 121.058L18.6957 132.059C16.7985 132.359 15.0646 131.023 15.0521 129.26L14.9893 119.1L7.73965 115.103C7.50093 114.976 7.56375 114.642 7.84016 114.607L14.9516 113.571V112.476C14.9264 111.071 16.0321 109.861 17.5398 109.631L88.8549 98.6298C90.7521 98.3302 92.4734 99.6665 92.486 101.429L92.6116 118.213Z" fill="white"/>
<path d="M25.3171 89.6908C25.5307 89.6562 25.7318 89.6677 25.9202 89.7253C26.1087 89.7829 26.2595 89.8751 26.3851 90.0018C26.5107 90.1285 26.5861 90.2783 26.6238 90.4626C26.6866 90.8082 26.6489 91.0846 26.4856 91.3035C26.3348 91.5224 26.1212 91.6836 25.8574 91.8104V91.8334C26.3977 91.868 26.7118 92.1214 26.7997 92.5937C26.85 92.8356 26.8248 93.0775 26.7369 93.3194C26.6489 93.5613 26.4982 93.7572 26.2846 93.9299C26.0836 94.1027 25.8197 94.2064 25.5056 94.264L22.7917 94.6902L22.6409 90.1055L25.3171 89.6793V89.6908ZM24.0481 90.8773L24.0733 91.6606L24.8899 91.5339C24.9905 91.5224 25.0658 91.4763 25.1412 91.3957C25.2166 91.315 25.2417 91.2344 25.2292 91.1422V90.981C25.2041 90.9003 25.1538 90.8312 25.091 90.7966C25.0281 90.7506 24.9402 90.739 24.8523 90.7506L24.0356 90.8773H24.0481ZM24.111 92.6398L24.1361 93.4231L25.0407 93.2849C25.1412 93.2733 25.2166 93.2273 25.292 93.1466C25.3674 93.066 25.3925 92.9853 25.38 92.8932V92.7319C25.3423 92.6513 25.3046 92.5822 25.2417 92.5476C25.1789 92.5015 25.091 92.49 25.003 92.5015L24.0984 92.6398H24.111ZM41.8643 87.0989L42.0151 91.6836L40.52 91.914L40.4194 88.9766H40.3943L39.6405 92.0523L37.9191 92.3172L36.9768 89.5065H36.9391L37.0396 92.4555L35.6827 92.6743L35.5319 88.0896L37.982 87.7094L38.761 90.0479H38.7861L39.4017 87.4906L41.8643 87.0989ZM45.3572 86.546C45.5708 86.5114 45.7718 86.5229 45.9603 86.5805C46.1488 86.6381 46.2995 86.7303 46.4252 86.857C46.5508 86.9837 46.6262 87.1335 46.6639 87.3178C46.7267 87.6634 46.689 87.9398 46.5257 88.1587C46.3749 88.3776 46.1613 88.5388 45.8975 88.6655V88.6886C46.4377 88.7231 46.7519 88.9766 46.8398 89.4489C46.8901 89.6908 46.8649 89.9327 46.777 90.1746C46.689 90.4165 46.5383 90.6123 46.3247 90.7851C46.1236 90.9579 45.8598 91.0616 45.5457 91.1192L42.8318 91.5454L42.681 86.9607L45.3572 86.5344V86.546ZM44.0882 87.7325L44.1133 88.5158L44.93 88.3891C45.0305 88.3776 45.1059 88.3315 45.1813 88.2508C45.2567 88.1702 45.2818 88.0896 45.2693 87.9974V87.8361C45.2441 87.7555 45.1939 87.6864 45.1311 87.6518C45.0682 87.6057 44.9803 87.5942 44.8923 87.6058L44.0757 87.7325H44.0882ZM44.151 89.4949L44.1762 90.2783L45.0808 90.14C45.1813 90.1285 45.2567 90.0824 45.3321 90.0018C45.4075 89.9212 45.4326 89.8405 45.42 89.7484V89.5871C45.3823 89.5065 45.3447 89.4373 45.2818 89.4028C45.219 89.3567 45.1311 89.3452 45.0431 89.3567L44.1385 89.4949H44.151ZM54.5794 85.106C54.793 85.0715 54.994 85.083 55.1825 85.1406C55.371 85.1982 55.5218 85.2903 55.6474 85.4171C55.773 85.5438 55.8484 85.6935 55.8861 85.8778C55.9489 86.2234 55.9112 86.4999 55.7479 86.7188C55.5971 86.9376 55.3835 87.0989 55.1197 87.2256V87.2486C55.66 87.2832 55.9741 87.5366 56.062 88.0089C56.1123 88.2508 56.0871 88.4928 55.9992 88.7347C55.9112 88.9766 55.7605 89.1724 55.5469 89.3452C55.3458 89.518 55.082 89.6217 54.7679 89.6793L52.054 90.1055L51.9032 85.5207L54.5794 85.0945V85.106ZM53.3104 86.2925L53.3356 87.0759L54.1522 86.9491C54.2528 86.9376 54.3281 86.8915 54.4035 86.8109C54.4789 86.7303 54.504 86.6496 54.4915 86.5575V86.3962C54.4663 86.3156 54.4161 86.2464 54.3533 86.2119C54.2904 86.1658 54.2025 86.1543 54.1145 86.1658L53.2979 86.2925H53.3104ZM53.3733 88.055L53.3984 88.8383L54.303 88.7001C54.4035 88.6886 54.4789 88.6425 54.5543 88.5619C54.6297 88.4812 54.6548 88.4006 54.6423 88.3084V88.1472C54.6046 88.0665 54.5669 87.9974 54.504 87.9629C54.4412 87.9168 54.3533 87.9053 54.2653 87.9168L53.3607 88.055H53.3733ZM71.1392 82.5141L71.29 87.0989L69.7948 87.3293L69.6943 84.3918H69.6692L68.9153 87.4675L67.194 87.7325L66.2517 84.9217H66.214L66.3145 87.8707L64.9576 88.0896L64.8068 83.5048L67.2568 83.1247L68.0358 85.4631H68.0609L68.6766 82.9058L71.1392 82.5141ZM74.6195 81.9612C74.8331 81.9267 75.0341 81.9382 75.2226 81.9958C75.4111 82.0534 75.5618 82.1455 75.6875 82.2722C75.8131 82.3989 75.8885 82.5487 75.9262 82.733C75.989 83.0786 75.9513 83.3551 75.788 83.5739C75.6372 83.7928 75.4236 83.9541 75.1598 84.0808V84.1038C75.7 84.1384 76.0142 84.3918 76.1021 84.8641C76.1524 85.106 76.1272 85.3479 76.0393 85.5898C75.9513 85.8318 75.8006 86.0276 75.587 86.2004C75.3859 86.3732 75.1221 86.4768 74.808 86.5344L72.0941 86.9607L71.9433 82.3759L74.6195 81.9497V81.9612ZM73.3505 83.1477L73.3756 83.931L74.1923 83.8043C74.2928 83.7928 74.3682 83.7467 74.4436 83.6661C74.519 83.5855 74.5441 83.5048 74.5316 83.4127V83.2514C74.5064 83.1708 74.4562 83.1016 74.3934 83.0671C74.3305 83.021 74.2426 83.0095 74.1546 83.021L73.338 83.1477H73.3505ZM73.4133 84.9102L73.4385 85.6935L74.3431 85.5553C74.4436 85.5438 74.519 85.4977 74.5944 85.4171C74.6698 85.3364 74.6949 85.2558 74.6823 85.1636V85.0024C74.6446 84.9217 74.607 84.8526 74.5441 84.818C74.4813 84.772 74.3934 84.7604 74.3054 84.772L73.4008 84.9102H73.4133Z" fill="#7F73FF"/>
<path d="M49.8426 85.8316L49.8678 86.8108L49.2898 86.9029L49.3778 89.5179L49.9557 89.4257L49.9809 90.4164L47.3172 90.8311L47.2921 89.8404L47.8701 89.7483L47.7821 87.1333L47.2041 87.2255L47.179 86.2463L49.8426 85.8316ZM79.0924 81.2354L79.1175 82.2145L78.5396 82.3067L78.6275 84.9216L79.2055 84.8294L79.2306 85.8201L76.567 86.2348L76.5418 85.2441L77.1198 85.152L77.0318 82.5371L76.4539 82.6292L76.4287 81.6501L79.0924 81.2354Z" fill="#FFB800"/>
<path d="M28.5461 93.6073C27.3776 93.2272 27.252 91.9025 27.2143 91.1422C27.164 89.4143 28.2697 88.8959 28.9859 88.8959C29.8779 88.8959 31.0464 89.1608 30.9585 91.4532C30.8705 93.7341 29.0487 93.8147 28.5461 93.6073Z" fill="#7F73FF"/>
<path d="M28.345 92.7204C27.6666 92.6167 27.5283 91.868 27.4655 91.4302C27.3399 90.4395 28.0435 90.1285 28.3827 90.0248C28.7094 89.9557 29.5135 89.9442 29.5889 91.2574C29.6643 92.5706 28.6466 92.7895 28.3576 92.7204H28.345Z" fill="white"/>
<path d="M28.069 91.9796C28.3805 91.9606 28.6129 91.6672 28.5879 91.3244C28.5629 90.9816 28.2901 90.7192 27.9786 90.7383C27.667 90.7574 27.4347 91.0507 27.4596 91.3935C27.4846 91.7363 27.7574 91.9987 28.069 91.9796Z" fill="black"/>
<path d="M32.7175 92.9738C31.549 92.5936 31.4234 91.2689 31.3857 90.5086C31.3354 88.7807 32.4411 88.2623 33.1573 88.2623C34.0493 88.2623 35.2178 88.5273 35.1299 90.8196C35.0419 93.1005 33.2201 93.1811 32.7175 92.9738Z" fill="#7F73FF"/>
<path d="M32.5039 92.0982C31.8254 91.9945 31.6872 91.2458 31.6244 90.808C31.4988 89.8173 32.2024 89.5063 32.5416 89.4026C32.8683 89.3335 33.6724 89.322 33.7478 90.6352C33.8232 91.9484 32.8054 92.1673 32.5165 92.0982H32.5039Z" fill="white"/>
<path d="M32.2228 91.3468C32.5343 91.3277 32.7667 91.0344 32.7417 90.6916C32.7168 90.3488 32.4439 90.0864 32.1324 90.1055C31.8208 90.1246 31.5885 90.4179 31.6134 90.7607C31.6384 91.1035 31.9112 91.3659 32.2228 91.3468Z" fill="black"/>
<path d="M61.7913 88.4467C60.6102 88.0665 60.4846 86.7418 60.4469 85.9815C60.3966 84.2421 61.5149 83.7352 62.231 83.7352C63.1357 83.7352 64.3041 84.0002 64.2162 86.2926C64.1282 88.5734 62.2938 88.654 61.7913 88.4467Z" fill="#7F73FF"/>
<path d="M62.7462 87.3292C62.0677 87.2255 61.917 86.4767 61.8541 86.039C61.7285 85.0483 62.4321 84.7373 62.7713 84.6336C63.098 84.5645 63.9021 84.553 63.9901 85.8662C64.0655 87.1794 63.0477 87.3983 62.7462 87.3292Z" fill="white"/>
<path d="M63.4548 86.4349C63.7662 86.4137 63.9961 86.1187 63.9682 85.7761C63.9404 85.4335 63.6654 85.173 63.354 85.1943C63.0426 85.2155 62.8127 85.5105 62.8406 85.8531C62.8684 86.1957 63.1434 86.4562 63.4548 86.4349Z" fill="black"/>
<path d="M57.7707 89.0801C56.5897 88.7 56.464 87.3752 56.4263 86.615C56.3761 84.8755 57.4943 84.3687 58.2105 84.3687C59.1151 84.3687 60.2836 84.6336 60.1956 86.926C60.1077 89.2068 58.2733 89.2875 57.7707 89.0801Z" fill="#7F73FF"/>
<path d="M58.7381 87.9627C58.0597 87.859 57.9089 87.1103 57.8461 86.6725C57.7204 85.6819 58.424 85.3708 58.7633 85.2671C59.0899 85.198 59.8941 85.1865 59.982 86.4997C60.0574 87.813 59.0397 88.0318 58.7381 87.9627Z" fill="white"/>
<path d="M59.4339 87.0641C59.7453 87.0428 59.9751 86.7479 59.9473 86.4053C59.9195 86.0627 59.6445 85.8022 59.3331 85.8234C59.0217 85.8447 58.7918 86.1397 58.8196 86.4823C58.8475 86.8249 59.1225 87.0854 59.4339 87.0641Z" fill="black"/>
<path d="M83.3139 83.7697L81.9067 83.8503V83.7236C81.8816 83.5047 81.9067 83.3204 81.9444 83.1822C81.9821 83.044 82.0575 82.9057 82.158 82.7905C82.2585 82.6754 82.4847 82.4565 82.8365 82.1454C83.025 81.9842 83.1129 81.8344 83.1129 81.7192C83.1129 81.604 83.0627 81.5004 82.9747 81.4312C82.8868 81.3621 82.7611 81.3391 82.5978 81.3506C82.4219 81.3506 82.2837 81.4197 82.1706 81.5349C82.0575 81.6501 82.0073 81.8344 81.9947 82.1109L80.5372 82.0303C80.5498 81.5464 80.7131 81.1433 81.0272 80.8207C81.3413 80.4982 81.8439 80.3254 82.535 80.2793C83.0752 80.2447 83.515 80.3254 83.8668 80.5097C84.3442 80.7631 84.5955 81.1202 84.6206 81.581C84.6332 81.7768 84.5955 81.9611 84.4824 82.1454C84.3693 82.3298 84.1558 82.5602 83.8165 82.8481C83.5778 83.044 83.427 83.2052 83.3768 83.3204C83.3139 83.4356 83.3014 83.5854 83.3139 83.7582V83.7697ZM81.8816 84.2074L83.3893 84.1153L83.4773 85.3363L81.9696 85.4285L81.8816 84.2074Z" fill="black"/>
<path d="M33.9739 115.943C34.1875 115.909 34.3885 115.932 34.577 115.99C34.7655 116.047 34.9162 116.139 35.0293 116.266C35.155 116.393 35.2304 116.554 35.2555 116.727C35.3183 117.072 35.2555 117.349 35.1047 117.568C34.9539 117.787 34.7403 117.948 34.4765 118.063V118.086C35.0168 118.132 35.3183 118.386 35.4063 118.858C35.4439 119.1 35.4188 119.342 35.3309 119.584C35.2429 119.825 35.0921 120.021 34.8786 120.194C34.665 120.367 34.4137 120.471 34.0996 120.517L31.3731 120.92L31.2852 116.335L33.9614 115.943H33.9739ZM32.6798 117.107L32.7049 117.89L33.5216 117.775C33.6221 117.764 33.6975 117.717 33.7729 117.637C33.8483 117.556 33.8734 117.476 33.8734 117.383V117.222C33.8483 117.141 33.8106 117.072 33.7352 117.026C33.6724 116.98 33.597 116.969 33.4965 116.98L32.6798 117.095V117.107ZM32.7175 118.869L32.7426 119.653L33.6472 119.514C33.7478 119.503 33.8231 119.457 33.8985 119.376C33.9739 119.296 33.999 119.215 33.999 119.123V118.962C33.9739 118.881 33.9362 118.812 33.8608 118.766C33.798 118.72 33.7226 118.708 33.6221 118.72L32.7175 118.858V118.869ZM50.5463 113.513L50.6342 118.098L49.1391 118.316L49.0762 115.379H49.0511L48.2595 118.455L46.5382 118.708L45.6336 115.886H45.5959L45.6587 118.835L44.3018 119.031L44.2138 114.446L46.6639 114.089L47.4177 116.427H47.4429L48.0836 113.87L50.5463 113.513ZM54.4286 112.948C54.6422 112.914 54.8433 112.937 55.0317 112.994C55.2202 113.052 55.371 113.144 55.484 113.271C55.5971 113.398 55.6851 113.559 55.7102 113.732C55.773 114.077 55.7102 114.354 55.5594 114.573C55.4086 114.791 55.1951 114.953 54.9312 115.068V115.091C55.4715 115.137 55.773 115.391 55.861 115.863C55.8987 116.105 55.8735 116.347 55.7856 116.589C55.6976 116.83 55.5469 117.026 55.3333 117.199C55.1197 117.372 54.8684 117.476 54.5543 117.522L51.8278 117.925L51.7399 113.34L54.4161 112.948H54.4286ZM53.1345 114.112L53.1596 114.895L53.9763 114.78C54.0768 114.768 54.1522 114.722 54.2276 114.642C54.303 114.561 54.3281 114.48 54.3281 114.388V114.227C54.303 114.146 54.2653 114.077 54.1899 114.031C54.1271 113.985 54.0517 113.974 53.9512 113.985L53.1345 114.1V114.112ZM53.1722 115.874L53.1973 116.658L54.102 116.519C54.2025 116.508 54.2779 116.462 54.3532 116.381C54.4286 116.301 54.4538 116.22 54.4538 116.128V115.966C54.4286 115.886 54.3909 115.817 54.3155 115.771C54.2527 115.725 54.1773 115.713 54.0768 115.725L53.1722 115.863V115.874ZM71.2397 110.437L71.3276 115.022L69.8325 115.241L69.7697 112.303H69.7445L68.953 115.379L67.2317 115.632L66.327 112.81H66.2893L66.3522 115.759L64.9952 115.955L64.9073 111.37L67.3573 111.013L68.1112 113.352H68.1363L68.7771 110.794L71.2397 110.437Z" fill="#7F73FF"/>
<path d="M37.1527 119.895C35.9842 119.503 35.8837 118.178 35.8586 117.418C35.8334 115.679 36.9391 115.183 37.6553 115.195C38.5473 115.206 39.7158 115.483 39.6027 117.764C39.4897 120.044 37.6553 120.102 37.1527 119.895Z" fill="#7F73FF"/>
<path d="M36.9643 119.019C36.2858 118.904 36.1601 118.155 36.0973 117.729C35.9842 116.738 36.6878 116.427 37.0271 116.335C37.3537 116.266 38.1579 116.266 38.2207 117.579C38.2835 118.892 37.2532 119.1 36.9643 119.031V119.019Z" fill="white"/>
<path d="M36.6789 118.27C36.9907 118.254 37.2266 117.963 37.2059 117.62C37.1852 117.277 36.9156 117.012 36.6038 117.028C36.2921 117.044 36.0561 117.335 36.0768 117.678C36.0975 118.021 36.3671 118.286 36.6789 118.27Z" fill="black"/>
<path d="M41.324 119.307C40.1555 118.915 40.055 117.591 40.0299 116.83C40.0048 115.091 41.1104 114.596 41.8266 114.607C42.7187 114.619 43.8871 114.895 43.7741 117.176C43.661 119.457 41.8266 119.514 41.324 119.307Z" fill="#7F73FF"/>
<path d="M41.1356 118.432C40.4571 118.316 40.3315 117.568 40.2686 117.141C40.1556 116.151 40.8592 115.84 41.1984 115.748C41.5251 115.679 42.3292 115.679 42.392 116.992C42.4548 118.305 41.4246 118.512 41.1356 118.443V118.432Z" fill="white"/>
<path d="M40.8587 117.679C41.1705 117.664 41.4064 117.373 41.3857 117.03C41.365 116.687 41.0954 116.421 40.7836 116.437C40.4719 116.453 40.2359 116.744 40.2566 117.087C40.2774 117.43 40.5469 117.695 40.8587 117.679Z" fill="black"/>
<path d="M61.6405 116.427C60.4721 116.036 60.359 114.7 60.3339 113.951C60.3087 112.211 61.4269 111.716 62.1431 111.727C63.0477 111.739 64.2162 112.015 64.1031 114.308C63.9901 116.589 62.1557 116.646 61.6405 116.439V116.427Z" fill="#7F73FF"/>
<path d="M62.6206 115.321C61.9421 115.206 61.8039 114.457 61.7537 114.02C61.6406 113.029 62.3568 112.718 62.6834 112.626C63.0101 112.557 63.8142 112.557 63.8771 113.87C63.9399 115.183 62.9096 115.39 62.6206 115.321Z" fill="white"/>
<path d="M63.3304 114.435C63.642 114.417 63.8755 114.125 63.8519 113.782C63.8283 113.439 63.5566 113.176 63.2449 113.194C62.9333 113.212 62.6998 113.504 62.7234 113.847C62.747 114.19 63.0187 114.453 63.3304 114.435Z" fill="black"/>
<path d="M57.6199 117.026C56.4514 116.635 56.3384 115.298 56.3132 114.55C56.2881 112.81 57.4063 112.315 58.1225 112.326C59.0271 112.338 60.1956 112.614 60.0825 114.907C59.9694 117.187 58.135 117.245 57.6199 117.038V117.026Z" fill="#7F73FF"/>
<path d="M58.6 115.92C57.9215 115.805 57.7833 115.056 57.7331 114.619C57.62 113.628 58.3236 113.317 58.6628 113.225C58.9895 113.156 59.7936 113.156 59.8564 114.469C59.9192 115.782 58.889 115.989 58.6 115.92Z" fill="white"/>
<path d="M59.3079 115.023C59.6196 115.005 59.8531 114.713 59.8295 114.37C59.8059 114.027 59.5341 113.764 59.2225 113.782C58.9108 113.8 58.6773 114.092 58.7009 114.435C58.7245 114.778 58.9963 115.041 59.3079 115.023Z" fill="black"/>
<path d="M72.9609 109.884L74.7074 109.792L74.7953 111.025L74.6194 113.513L73.5389 113.571L73.0489 111.117L72.9609 109.884ZM73.2876 113.962L74.921 113.87L75.0089 115.195L73.3756 115.287L73.2876 113.962Z" fill="black"/>
</g>
<defs>
<clipPath id="clip0_640_7100">
<rect width="105" height="210" fill="white"/>
</clipPath>
</defs>
</svg>
