<svg width="183" height="183" viewBox="0 0 183 183" fill="none" xmlns="http://www.w3.org/2000/svg">
<g clipPath="url(#clip0_640_7257)">
<path d="M172.514 20.4204H82.9435C77.1521 20.4204 72.4572 24.8782 72.4572 30.3771V154.974C72.4572 160.473 77.1521 164.93 82.9435 164.93H172.514C178.305 164.93 183 160.473 183 154.974V30.3771C183 24.8782 178.305 20.4204 172.514 20.4204Z" fill="white"/>
<path d="M170.135 33.0967V70.9874C170.135 71.9785 168.97 72.6008 168.072 72.0476L153.871 63.1742C153.435 62.8976 152.852 62.8976 152.415 63.1742L138.215 72.0476C137.341 72.6008 136.152 72.0015 136.152 70.9874V33.0967C136.152 32.4053 136.734 31.8291 137.487 31.8291H168.824C169.552 31.8291 170.159 32.3822 170.159 33.0967H170.135Z" fill="#FFB800"/>
<path d="M126.685 0H37.1146C31.3232 0 26.6284 4.45776 26.6284 9.95667V134.553C26.6284 140.052 31.3232 144.51 37.1146 144.51H126.685C132.476 144.51 137.171 140.052 137.171 134.553V9.95667C137.171 4.45776 132.476 0 126.685 0Z" fill="#7F73FF"/>
<path d="M124.282 12.6994V50.5901C124.282 51.5811 123.117 52.2034 122.218 51.6503L108.018 42.7768C107.581 42.5003 106.999 42.5003 106.562 42.7768L92.3617 51.6503C91.4879 52.2034 90.2985 51.6042 90.2985 50.5901V12.6994C90.2985 12.008 90.881 11.4318 91.6335 11.4318H122.971C123.699 11.4318 124.306 11.9849 124.306 12.6994H124.282Z" fill="#FFB800"/>
<path d="M101.27 37.3145H11.7C5.90855 37.3145 1.21368 41.7722 1.21368 47.2711V171.868C1.21368 177.367 5.90855 181.825 11.7 181.825H101.27C107.062 181.825 111.756 177.367 111.756 171.868V47.2711C111.756 41.7722 107.062 37.3145 101.27 37.3145Z" fill="white" stroke="white" strokeMiterlimit="10"/>
<path d="M98.8671 50.0139V87.9045C98.8671 88.8956 97.7019 89.5179 96.8038 88.9647L82.6036 80.0913C82.1667 79.8147 81.5842 79.8147 81.1472 80.0913L66.9471 88.9647C66.0732 89.5179 64.8838 88.9186 64.8838 87.9045V50.0139C64.8838 49.3224 65.4664 48.7462 66.2188 48.7462H97.5563C98.2845 48.7462 98.8914 49.2994 98.8914 50.0139H98.8671Z" fill="#FFB800"/>
</g>
<defs>
<clipPath id="clip0_640_7257">
<rect width="183" height="183" fill="white"/>
</clipPath>
</defs>
</svg>
