<svg width="281" height="204" viewBox="0 0 281 204" fill="none" xmlns="http://www.w3.org/2000/svg">
<g clip-path="url(#clip0_640_7138)">
<path d="M86.2336 105.637H71.4964C64.6415 114.128 53.256 119.88 40.2199 120.302C18.5942 120.996 0.589543 106.787 5.62957e-05 88.5522C-0.589431 70.3174 16.472 54.9751 38.0978 54.2815C59.7235 53.588 77.7281 67.797 78.3176 86.0318C78.4355 89.7024 77.846 93.2547 76.6334 96.587L78.3008 98.0248L86.4694 104.926C86.7557 105.18 86.5873 105.637 86.2167 105.637H86.2336Z" fill="white"/>
<path d="M140.264 203.983L64.2373 175.311C63.5467 175.041 63.5467 174.06 64.2373 173.806L140.264 146.775C140.348 146.741 140.45 146.741 140.534 146.775L217.588 174.161C217.942 174.28 217.942 174.787 217.588 174.905L140.534 203.966C140.45 204 140.348 204 140.247 203.966L140.264 203.983Z" fill="#FFB800"/>
<path d="M242.869 121.165C228.317 121.639 215.399 115.363 208.325 105.637H195.356C194.985 105.637 194.817 105.18 195.103 104.926L203.272 98.0249L204.047 97.3482C203.221 94.8279 202.733 92.1721 202.649 89.4318C202.076 71.197 219.138 55.8547 240.763 55.1612C262.389 54.4677 280.394 68.6766 280.983 86.9114C281.556 105.129 264.494 120.472 242.869 121.165Z" fill="white"/>
<path d="M177.89 31.7672C178.429 48.6149 163.911 62.993 144.626 65.6149L144.037 67.391L140.736 77.6079C140.618 77.9632 140.13 77.9801 139.995 77.6249L135.414 66.2915L135.279 65.9532C115.708 64.7015 100.112 51.2368 99.5728 34.2876C99.0002 16.0696 116.062 0.727355 137.687 0.0338229C159.313 -0.676625 177.318 13.5323 177.89 31.7672Z" fill="#7F73FF"/>
<path d="M247.18 64H237.257C236.242 64 235.42 64.8258 235.42 65.8444V110.452C235.42 111.471 236.242 112.297 237.257 112.297H247.18C248.194 112.297 249.016 111.471 249.016 110.452V65.8444C249.016 64.8258 248.194 64 247.18 64Z" fill="#7F73FF"/>
<path d="M242.226 101.431C249.53 101.431 255.452 95.4843 255.452 88.1482C255.452 80.8122 249.53 74.8651 242.226 74.8651C234.921 74.8651 229 80.8122 229 88.1482C229 95.4843 234.921 101.431 242.226 101.431Z" fill="white" stroke="#7F73FF" stroke-width="0.916296" stroke-miterlimit="10"/>
<path d="M242.226 88.1483V80.073" stroke="#7F73FF" stroke-width="0.916296" stroke-miterlimit="10" stroke-linecap="round"/>
<path d="M242.272 88.1482L238.537 91.0776" stroke="#7F73FF" stroke-width="0.916296" stroke-miterlimit="10" stroke-linecap="round"/>
<path d="M167.583 123.805C167.583 108.934 156.517 96.8915 140.803 96.8915C125.089 96.8915 114.024 108.934 114.024 123.805C114.024 132.322 120.104 142.352 120.104 142.352L140.45 176.8C140.601 177.067 141.005 177.067 141.157 176.8L161.503 142.352C161.503 142.352 167.583 133.087 167.583 123.805Z" fill="white"/>
<ellipse cx="141" cy="123.549" rx="11" ry="10.8169" fill="#FFB800"/>
<path d="M133.009 30.6122H124.896C124.08 30.6122 123.419 31.2766 123.419 32.0962V49.4596C123.419 50.2792 124.08 50.9436 124.896 50.9436H133.009C133.825 50.9436 134.486 50.2792 134.486 49.4596V32.0962C134.486 31.2766 133.825 30.6122 133.009 30.6122Z" fill="white"/>
<path d="M128.96 28.9797C132.803 28.9797 135.919 25.8502 135.919 21.9899C135.919 18.1295 132.803 15 128.96 15C125.116 15 122 18.1295 122 21.9899C122 25.8502 125.116 28.9797 128.96 28.9797Z" fill="white"/>
<path d="M147.859 28.9797C151.703 28.9797 154.818 25.8502 154.818 21.9899C154.818 18.1295 151.703 15 147.859 15C144.015 15 140.899 18.1295 140.899 21.9899C140.899 25.8502 144.015 28.9797 147.859 28.9797Z" fill="white"/>
<path d="M143.588 30.6121H152.218C152.927 30.6121 153.533 31.1167 153.666 31.8142L156.946 49.1924C157.124 50.0977 156.429 50.9436 155.498 50.9436H140.219C139.288 50.9436 138.594 50.0977 138.771 49.1775L142.14 31.7994C142.273 31.1019 142.879 30.5973 143.588 30.5973V30.6121Z" fill="white"/>
<path d="M48.338 93.187H31.1924C30.4761 93.187 29.8955 93.7702 29.8955 94.4895V111.422C29.8955 112.141 30.4761 112.724 31.1924 112.724H48.338C49.0543 112.724 49.6349 112.141 49.6349 111.422V94.4895C49.6349 93.7702 49.0543 93.187 48.338 93.187Z" fill="#7F73FF"/>
<path d="M40.4726 96.401L41.4663 94.8617H38.0641L39.0578 96.401L37.3904 103.759C37.3904 103.759 37.3904 103.844 37.3904 103.878L39.5462 108.783C39.6136 108.952 39.8831 108.952 39.9673 108.783L42.1231 103.878C42.1231 103.878 42.14 103.793 42.1231 103.759L40.4557 96.401H40.4726Z" fill="white"/>
<path d="M38.0641 94.8786L38.8725 93.187H40.5736L41.4663 94.8786H38.0641Z" fill="white"/>
<path d="M68.97 77.5572L55.6139 83.4438C55.3613 83.5622 55.075 83.5622 54.8223 83.4438L41.4663 77.5572C40.6747 77.202 40.6747 76.0856 41.4663 75.7304L54.8223 69.8438C55.075 69.7254 55.3613 69.7254 55.6139 69.8438L68.97 75.7304C69.7616 76.0856 69.7616 77.202 68.97 77.5572Z" fill="#7F73FF"/>
<path d="M60.7172 76.6438H49.7023C48.2326 76.6438 47.0411 77.8404 47.0411 79.3164V86.5393C47.0411 88.0154 48.2326 89.212 49.7023 89.212H60.7172C62.1869 89.212 63.3783 88.0154 63.3783 86.5393V79.3164C63.3783 77.8404 62.1869 76.6438 60.7172 76.6438Z" fill="#7F73FF"/>
<path d="M67.5721 76.6438V85.203" stroke="#7F73FF" stroke-width="0.5" stroke-miterlimit="10"/>
<path d="M68.4984 84.0527H66.6289V87.7234H68.4984V84.0527Z" fill="#7F73FF"/>
<path d="M25.7185 71.5183H15.3604C13.2581 71.5183 11.554 73.2299 11.554 75.3412V86.2686C11.554 88.3799 13.2581 90.0914 15.3604 90.0914H25.7185C27.8207 90.0914 29.5249 88.3799 29.5249 86.2686V75.3412C29.5249 73.2299 27.8207 71.5183 25.7185 71.5183Z" fill="#7F73FF"/>
<path d="M25.9374 71.5861C21.9289 72.2627 19.1835 75.9841 19.8067 79.9085C20.4299 83.8328 24.1689 86.4547 28.1774 85.7781C32.1859 85.1015 35.5208 77.5911 34.8976 73.6836C34.2744 69.7761 29.9459 70.9264 25.9374 71.603V71.5861ZM27.9585 84.3572C24.7584 84.8985 21.7604 82.801 21.272 79.6716C20.7836 76.5423 22.9731 73.5652 26.1732 73.0239C29.3732 72.4826 32.9607 70.791 33.4491 73.9373C33.9376 77.0836 31.1585 83.8328 27.9585 84.3741V84.3572Z" fill="#7F73FF"/>
<path d="M18.0719 70.182C14.4676 72.1273 13.0697 76.7114 14.9392 80.4328C16.8088 84.1542 21.2552 85.592 24.8426 83.6636C28.4301 81.7353 29.1711 73.1761 27.3016 69.4547C25.4321 65.7333 21.6594 68.2537 18.0719 70.1989V70.182ZM23.9163 82.395C20.9688 83.7989 17.4825 82.4626 16.1182 79.4179C14.754 76.3731 16.0508 72.7701 18.9983 71.3661C21.9457 69.9621 24.9437 67.3064 26.3079 70.3512C27.6722 73.396 26.8637 80.991 23.9163 82.395Z" fill="#7F73FF"/>
<path d="M29.5249 77.2019H11.554V78.4198H29.5249V77.2019Z" fill="white"/>
<path d="M20.5478 79.3332C21.3757 79.3332 22.0468 78.6441 22.0468 77.7939C22.0468 76.9438 21.3757 76.2546 20.5478 76.2546C19.7199 76.2546 19.0488 76.9438 19.0488 77.7939C19.0488 78.6441 19.7199 79.3332 20.5478 79.3332Z" fill="white"/>
</g>
<defs>
<clipPath id="clip0_640_7138">
<rect width="281" height="204" fill="white"/>
</clipPath>
</defs>
</svg>
