<svg width="140" height="80" viewBox="0 0 140 80" fill="none" xmlns="http://www.w3.org/2000/svg">
    <g clipPath="url(#dgevt5c93a)">
        <path d="M39.29 53.57.4 62.24l17.43-15.43L2.59 36.66l23.69-5.37-5.15-8.85 14.49 3.39-3.87-21.85 10.59 19.38L54.36 2.85l1.82 29.34c.65 11.22 2.08 6.71 2.74 17.93-10.57 1.87-9.06 1.58-19.63 3.45z" fill="#FFC700"/>
        <path d="M45.65 71.87c-8.3-4.63-7.39-15.76-6.58-22.03 2.09-14.35 11.17-17.13 16.58-16.18 6.76 1.19 15.2 4.9 11.32 23.6-3.89 18.71-17.81 16.97-21.32 14.6v.01z" fill="#7F73FF"/>
        <path d="M45.32 64.37c-4.96-1.76-4.99-8.13-4.84-11.75.47-8.3 6.22-10 8.89-10.4 2.56-.18 8.65.79 7.37 11.73-1.28 10.94-9.29 11.39-11.41 10.41l-.01.01z" fill="#fff"/>
        <path d="M49.125 53.144c.288-2.847-1.417-5.35-3.807-5.592-2.39-.241-4.561 1.87-4.849 4.717-.288 2.846 1.417 5.35 3.807 5.591 2.39.242 4.561-1.87 4.849-4.716z" fill="#000"/>
        <path d="M78.04 72.06c-8.3-4.63-7.39-15.76-6.58-22.03 2.09-14.35 11.17-17.13 16.58-16.18 6.76 1.19 15.2 4.9 11.32 23.6-3.89 18.71-17.81 16.97-21.32 14.6v.01z" fill="#7F73FF"/>
        <path d="M77.71 64.56c-4.96-1.76-4.99-8.13-4.84-11.75.47-8.3 6.22-10 8.89-10.4 2.56-.18 8.65.79 7.37 11.73-1.28 10.94-9.29 11.39-11.41 10.41l-.01.01z" fill="#fff"/>
        <path d="M81.498 53.347c.288-2.847-1.417-5.35-3.807-5.592-2.39-.241-4.561 1.87-4.849 4.717-.288 2.846 1.417 5.35 3.807 5.591 2.39.242 4.561-1.87 4.849-4.716z" fill="#000"/>
        <path d="M106.88 17.89h5.49c.55 0 1 .45 1 1l-1 16.7c0 .55-.45 1-1 1h-3.49c-.55 0-1-.45-1-1l-1-16.7c0-.55.45-1 1-1zM109.59 45.85a3.72 3.72 0 1 0 0-7.44 3.72 3.72 0 0 0 0 7.44z" fill="#fff"/>
    </g>
    <defs>
        <clipPath id="dgevt5c93a">
            <path fill="#fff" d="M0 0h140v80H0z"/>
        </clipPath>
    </defs>
</svg>
