<svg width="153" height="78" viewBox="0 0 153 78" fill="none" xmlns="http://www.w3.org/2000/svg">
<path d="M18.1804 7.90552C19.2957 7.90552 20.2996 8.15338 21.1918 8.6491C22.0841 9.12003 22.7781 9.76446 23.2739 10.5824C23.7696 11.4003 24.0174 12.3174 24.0174 13.3336C24.0174 15.2917 23.5217 16.8036 22.5303 17.8694C21.5636 18.9352 20.3491 19.6788 18.8868 20.1001L18.8496 20.2488C21.5512 20.9181 22.9021 22.6035 22.9021 25.3051C22.9021 26.6684 22.5675 27.982 21.8982 29.2461C21.229 30.4854 20.2748 31.4892 19.0355 32.2576C17.821 33.0259 16.4082 33.4101 14.7971 33.4101H0.594859L4.20119 7.90552H18.1804ZM10.5959 13.3336L10.0011 17.6835H14.2766C14.7723 17.6835 15.2433 17.4976 15.6894 17.1258C16.1355 16.754 16.371 16.3203 16.3958 15.8246L16.4702 14.9323C16.4702 14.4614 16.3214 14.0772 16.024 13.7798C15.7266 13.4823 15.3424 13.3336 14.8715 13.3336H10.5959ZM9.22031 23.1116L8.62545 27.4987H13.3471C13.8429 27.4987 14.3138 27.3128 14.7599 26.941C15.2061 26.5692 15.4415 26.1355 15.4663 25.6398L15.5407 24.7103C15.5407 24.2394 15.392 23.8552 15.0945 23.5577C14.7971 23.2603 14.4129 23.1116 13.942 23.1116H9.22031ZM104.604 7.90552L100.998 33.4101H93.1901L95.4952 17.0515H95.3464L88.5799 33.4101H79.6199L77.5007 17.0515H77.3148L75.0097 33.4101H67.9086L71.5149 7.90552H84.3044L86.0518 21.5129H86.2005L91.7401 7.90552H104.604ZM122.818 7.90552C123.933 7.90552 124.937 8.15338 125.829 8.6491C126.722 9.12003 127.416 9.76446 127.911 10.5824C128.407 11.4003 128.655 12.3174 128.655 13.3336C128.655 15.2917 128.159 16.8036 127.168 17.8694C126.201 18.9352 124.987 19.6788 123.524 20.1001L123.487 20.2488C126.189 20.9181 127.54 22.6035 127.54 25.3051C127.54 26.6684 127.205 27.982 126.536 29.2461C125.867 30.4854 124.912 31.4892 123.673 32.2576C122.459 33.0259 121.046 33.4101 119.435 33.4101H105.232L108.839 7.90552H122.818ZM115.234 13.3336L114.639 17.6835H118.914C119.41 17.6835 119.881 17.4976 120.327 17.1258C120.773 16.754 121.009 16.3203 121.033 15.8246L121.108 14.9323C121.108 14.4614 120.959 14.0772 120.662 13.7798C120.364 13.4823 119.98 13.3336 119.509 13.3336H115.234ZM113.858 23.1116L113.263 27.4987H117.985C118.48 27.4987 118.951 27.3128 119.398 26.941C119.844 26.5692 120.079 26.1355 120.104 25.6398L120.178 24.7103C120.178 24.2394 120.03 23.8552 119.732 23.5577C119.435 23.2603 119.051 23.1116 118.58 23.1116H113.858ZM18.1804 45.9055C19.2957 45.9055 20.2996 46.1534 21.1918 46.6491C22.0841 47.12 22.7781 47.7645 23.2739 48.5824C23.7696 49.4003 24.0174 50.3174 24.0174 51.3336C24.0174 53.2917 23.5217 54.8036 22.5303 55.8694C21.5636 56.9352 20.3491 57.6788 18.8868 58.1001L18.8496 58.2488C21.5512 58.9181 22.9021 60.6035 22.9021 63.3051C22.9021 64.6684 22.5675 65.982 21.8982 67.2461C21.229 68.4854 20.2748 69.4892 19.0355 70.2576C17.821 71.0259 16.4082 71.4101 14.7971 71.4101H0.594859L4.20119 45.9055H18.1804ZM10.5959 51.3336L10.0011 55.6835H14.2766C14.7723 55.6835 15.2433 55.4976 15.6894 55.1258C16.1355 54.754 16.371 54.3203 16.3958 53.8246L16.4702 52.9323C16.4702 52.4614 16.3214 52.0772 16.024 51.7798C15.7266 51.4823 15.3424 51.3336 14.8715 51.3336H10.5959ZM9.22031 61.1116L8.62545 65.4987H13.3471C13.8429 65.4987 14.3138 65.3128 14.7599 64.941C15.2061 64.5692 15.4415 64.1355 15.4663 63.6398L15.5407 62.7103C15.5407 62.2394 15.392 61.8552 15.0945 61.5577C14.7971 61.2603 14.4129 61.1116 13.942 61.1116H9.22031ZM104.604 45.9055L100.998 71.4101H93.1901L95.4952 55.0515H95.3464L88.5799 71.4101H79.6199L77.5007 55.0515H77.3148L75.0097 71.4101H67.9086L71.5149 45.9055H84.3044L86.0518 59.5129H86.2005L91.7401 45.9055H104.604ZM122.818 45.9055C123.933 45.9055 124.937 46.1534 125.829 46.6491C126.722 47.12 127.416 47.7645 127.911 48.5824C128.407 49.4003 128.655 50.3174 128.655 51.3336C128.655 53.2917 128.159 54.8036 127.168 55.8694C126.201 56.9352 124.987 57.6788 123.524 58.1001L123.487 58.2488C126.189 58.9181 127.54 60.6035 127.54 63.3051C127.54 64.6684 127.205 65.982 126.536 67.2461C125.867 68.4854 124.912 69.4892 123.673 70.2576C122.459 71.0259 121.046 71.4101 119.435 71.4101H105.232L108.839 45.9055H122.818ZM115.234 51.3336L114.639 55.6835H118.914C119.41 55.6835 119.881 55.4976 120.327 55.1258C120.773 54.754 121.009 54.3203 121.033 53.8246L121.108 52.9323C121.108 52.4614 120.959 52.0772 120.662 51.7798C120.364 51.4823 119.98 51.3336 119.509 51.3336H115.234ZM113.858 61.1116L113.263 65.4987H117.985C118.48 65.4987 118.951 65.3128 119.398 64.941C119.844 64.5692 120.079 64.1355 120.104 63.6398L120.178 62.7103C120.178 62.2394 120.03 61.8552 119.732 61.5577C119.435 61.2603 119.051 61.1116 118.58 61.1116H113.858Z" fill="#9853F0"/>
<path d="M146.361 7.90552L145.581 13.3708H142.569L140.524 27.9077H143.536L142.755 33.4101H128.85L129.631 27.9077H132.642L134.687 13.3708H131.676L132.457 7.90552H146.361ZM146.361 45.9055L145.581 51.3708H142.569L140.524 65.9077H143.536L142.755 71.4101H128.85L129.631 65.9077H132.642L134.687 51.3708H131.676L132.457 45.9055H146.361Z" fill="#FFB800"/>
<path d="M21.1918 8.6491L20.6903 9.55188L20.7 9.55726L20.7098 9.56244L21.1918 8.6491ZM23.2739 10.5824L24.157 10.0471L24.157 10.0471L23.2739 10.5824ZM22.5303 17.8694L21.7741 17.1659L21.7653 17.1756L22.5303 17.8694ZM18.8868 20.1001L18.6008 19.1078L18.0292 19.2725L17.8849 19.8497L18.8868 20.1001ZM18.8496 20.2488L17.8477 19.9984L17.5967 21.0024L18.6013 21.2513L18.8496 20.2488ZM21.8982 29.2461L22.807 29.7368L22.811 29.7293L21.8982 29.2461ZM19.0355 32.2576L18.4913 31.3798L18.4833 31.3848L19.0355 32.2576ZM0.594859 33.4101L-0.42771 33.2655L-0.594184 34.4428H0.594859V33.4101ZM4.20119 7.90552V6.87278H3.30421L3.17862 7.76093L4.20119 7.90552ZM10.5959 13.3336V12.3009H9.6948L9.57271 13.1937L10.5959 13.3336ZM10.0011 17.6835L8.97785 17.5436L8.81748 18.7163H10.0011V17.6835ZM15.6894 17.1258L15.0283 16.3325L15.0283 16.3325L15.6894 17.1258ZM16.3958 15.8246L15.3666 15.7388L15.3652 15.7559L15.3643 15.773L16.3958 15.8246ZM16.4702 14.9323L17.4993 15.0181L17.5029 14.9753V14.9323H16.4702ZM16.024 13.7798L15.2937 14.51L15.2938 14.51L16.024 13.7798ZM9.22031 23.1116V22.0789H8.31815L8.19693 22.9728L9.22031 23.1116ZM8.62545 27.4987L7.60208 27.3599L7.44323 28.5314H8.62545V27.4987ZM15.4663 25.6398L14.4369 25.5574L14.4356 25.5728L14.4349 25.5882L15.4663 25.6398ZM15.5407 24.7103L16.5701 24.7926L16.5734 24.7515V24.7103H15.5407ZM18.1804 8.93826C19.1369 8.93826 19.9654 9.14915 20.6903 9.55188L21.6934 7.74632C20.6337 7.15762 19.4546 6.87278 18.1804 6.87278V8.93826ZM20.7098 9.56244C21.4461 9.95102 21.9973 10.4687 22.3907 11.1177L24.157 10.0471C23.5589 9.06023 22.7222 8.28904 21.6739 7.73576L20.7098 9.56244ZM22.3907 11.1177C22.7824 11.764 22.9847 12.4938 22.9847 13.3336H25.0502C25.0502 12.1409 24.7568 11.0367 24.157 10.0471L22.3907 11.1177ZM22.9847 13.3336C22.9847 15.1225 22.5338 16.3493 21.7741 17.166L23.2864 18.5728C24.5096 17.2579 25.0502 15.4609 25.0502 13.3336H22.9847ZM21.7653 17.1756C20.9351 18.091 19.89 18.7363 18.6008 19.1078L19.1727 21.0925C20.8083 20.6212 22.1922 19.7794 23.2952 18.5632L21.7653 17.1756ZM17.8849 19.8497L17.8477 19.9984L19.8515 20.4993L19.8887 20.3506L17.8849 19.8497ZM18.6013 21.2513C19.7961 21.5473 20.5857 22.0401 21.0831 22.6607C21.5779 23.2781 21.8693 24.1289 21.8693 25.3051H23.9348C23.9348 23.7798 23.5508 22.437 22.6948 21.369C21.8414 20.3042 20.6047 19.6197 19.0979 19.2464L18.6013 21.2513ZM21.8693 25.3051C21.8693 26.4916 21.5799 27.6401 20.9855 28.7629L22.811 29.7293C23.555 28.3239 23.9348 26.8452 23.9348 25.3051H21.8693ZM20.9895 28.7554C20.4091 29.8303 19.583 30.703 18.4913 31.3798L19.5797 33.1353C20.9665 32.2754 22.049 31.1404 22.807 29.7368L20.9895 28.7554ZM18.4833 31.3848C17.4535 32.0363 16.2371 32.3774 14.7971 32.3774V34.4428C16.5793 34.4428 18.1885 34.0155 19.5876 33.1303L18.4833 31.3848ZM14.7971 32.3774H0.594859V34.4428H14.7971V32.3774ZM1.61743 33.5547L5.22376 8.05011L3.17862 7.76093L-0.42771 33.2655L1.61743 33.5547ZM4.20119 8.93826H18.1804V6.87278H4.20119V8.93826ZM9.57271 13.1937L8.97785 17.5436L11.0243 17.8234L11.6191 13.4735L9.57271 13.1937ZM10.0011 18.7163H14.2766V16.6508H10.0011V18.7163ZM14.2766 18.7163C15.0541 18.7163 15.7522 18.4178 16.3505 17.9192L15.0283 16.3325C14.7343 16.5774 14.4905 16.6508 14.2766 16.6508V18.7163ZM16.3505 17.9192C16.9771 17.3971 17.3856 16.7095 17.4272 15.8762L15.3643 15.773C15.3564 15.9311 15.294 16.111 15.0283 16.3325L16.3505 17.9192ZM17.425 15.9103L17.4993 15.0181L15.441 14.8465L15.3666 15.7388L17.425 15.9103ZM17.5029 14.9323C17.5029 14.2233 17.2693 13.5645 16.7543 13.0495L15.2938 14.51C15.3736 14.5898 15.4374 14.6995 15.4374 14.9323H17.5029ZM16.7543 13.0495C16.2392 12.5345 15.5805 12.3009 14.8715 12.3009V14.3664C15.1043 14.3664 15.2139 14.4302 15.2937 14.51L16.7543 13.0495ZM14.8715 12.3009H10.5959V14.3664H14.8715V12.3009ZM8.19693 22.9728L7.60208 27.3599L9.64883 27.6374L10.2437 23.2504L8.19693 22.9728ZM8.62545 28.5314H13.3471V26.4659H8.62545V28.5314ZM13.3471 28.5314C14.1247 28.5314 14.8228 28.233 15.4211 27.7344L14.0988 26.1476C13.8048 26.3926 13.5611 26.4659 13.3471 26.4659V28.5314ZM15.4211 27.7344C16.0477 27.2122 16.4561 26.5247 16.4978 25.6913L14.4349 25.5882C14.427 25.7462 14.3645 25.9262 14.0988 26.1476L15.4211 27.7344ZM16.4958 25.7221L16.5701 24.7926L14.5112 24.6279L14.4369 25.5574L16.4958 25.7221ZM16.5734 24.7103C16.5734 24.0013 16.3398 23.3425 15.8248 22.8275L14.3643 24.288C14.4441 24.3678 14.5079 24.4775 14.5079 24.7103H16.5734ZM15.8248 22.8275C15.3098 22.3125 14.651 22.0789 13.942 22.0789V24.1443C14.1748 24.1443 14.2845 24.2082 14.3643 24.288L15.8248 22.8275ZM13.942 22.0789H9.22031V24.1443H13.942V22.0789ZM104.604 7.90552L105.627 8.05011L105.793 6.87278H104.604V7.90552ZM100.998 33.4101V34.4428H101.895L102.02 33.5547L100.998 33.4101ZM93.1901 33.4101L92.1674 33.266L92.0016 34.4428H93.1901V33.4101ZM95.4952 17.0515L96.5178 17.1956L96.6836 16.0187H95.4952V17.0515ZM95.3465 17.0515V16.0187H94.656L94.3921 16.6567L95.3465 17.0515ZM88.5799 33.4101V34.4428H89.2704L89.5343 33.8048L88.5799 33.4101ZM79.6199 33.4101L78.5957 33.5428L78.7123 34.4428H79.6199V33.4101ZM77.5007 17.0515L78.5249 16.9188L78.4083 16.0187H77.5007V17.0515ZM77.3148 17.0515V16.0187H76.4174L76.2922 16.9074L77.3148 17.0515ZM75.0097 33.4101V34.4428H75.9071L76.0324 33.5542L75.0097 33.4101ZM67.9086 33.4101L66.886 33.2655L66.7195 34.4428H67.9086V33.4101ZM71.5149 7.90552V6.87278H70.6179L70.4923 7.76093L71.5149 7.90552ZM84.3044 7.90552L85.3287 7.77398L85.213 6.87278H84.3044V7.90552ZM86.0518 21.5129L85.0275 21.6445L85.1432 22.5457H86.0518V21.5129ZM86.2005 21.5129V22.5457H86.8951L87.157 21.9023L86.2005 21.5129ZM91.7401 7.90552V6.87278H91.0455L90.7836 7.51612L91.7401 7.90552ZM103.581 7.76093L99.975 33.2655L102.02 33.5547L105.627 8.05011L103.581 7.76093ZM100.998 32.3774H93.1901V34.4428H100.998V32.3774ZM94.2127 33.5542L96.5178 17.1956L94.4725 16.9074L92.1674 33.266L94.2127 33.5542ZM95.4952 16.0187H95.3465V18.0842H95.4952V16.0187ZM94.3921 16.6567L87.6256 33.0154L89.5343 33.8048L96.3008 17.4462L94.3921 16.6567ZM88.5799 32.3774H79.6199V34.4428H88.5799V32.3774ZM80.6441 33.2774L78.5249 16.9188L76.4765 17.1842L78.5957 33.5428L80.6441 33.2774ZM77.5007 16.0187H77.3148V18.0842H77.5007V16.0187ZM76.2922 16.9074L73.9871 33.266L76.0324 33.5542L78.3374 17.1956L76.2922 16.9074ZM75.0097 32.3774H67.9086V34.4428H75.0097V32.3774ZM68.9312 33.5547L72.5375 8.05011L70.4923 7.76093L66.886 33.2655L68.9312 33.5547ZM71.5149 8.93826H84.3044V6.87278H71.5149V8.93826ZM83.2801 8.03706L85.0275 21.6445L87.0761 21.3814L85.3287 7.77398L83.2801 8.03706ZM86.0518 22.5457H86.2005V20.4802H86.0518V22.5457ZM87.157 21.9023L92.6966 8.29492L90.7836 7.51612L85.244 21.1235L87.157 21.9023ZM91.7401 8.93826H104.604V6.87278H91.7401V8.93826ZM125.829 8.6491L125.328 9.55188L125.338 9.55726L125.347 9.56244L125.829 8.6491ZM127.911 10.5824L128.795 10.0471V10.0471L127.911 10.5824ZM127.168 17.8694L126.412 17.1659L126.403 17.1756L127.168 17.8694ZM123.524 20.1001L123.238 19.1078L122.667 19.2725L122.522 19.8497L123.524 20.1001ZM123.487 20.2488L122.485 19.9984L122.234 21.0024L123.239 21.2513L123.487 20.2488ZM126.536 29.2461L127.445 29.7368L127.449 29.7293L126.536 29.2461ZM123.673 32.2576L123.129 31.3798L123.121 31.3848L123.673 32.2576ZM105.232 33.4101L104.21 33.2655L104.043 34.4428H105.232V33.4101ZM108.839 7.90552V6.87278H107.942L107.816 7.76093L108.839 7.90552ZM115.234 13.3336V12.3009H114.332L114.21 13.1937L115.234 13.3336ZM114.639 17.6835L113.615 17.5436L113.455 18.7163H114.639V17.6835ZM120.327 17.1258L119.666 16.3325V16.3325L120.327 17.1258ZM121.033 15.8246L120.004 15.7388L120.003 15.7559L120.002 15.773L121.033 15.8246ZM121.108 14.9323L122.137 15.0181L122.141 14.9753V14.9323H121.108ZM120.662 13.7798L119.931 14.51L119.931 14.51L120.662 13.7798ZM113.858 23.1116V22.0789H112.956L112.835 22.9728L113.858 23.1116ZM113.263 27.4987L112.24 27.3599L112.081 28.5314H113.263V27.4987ZM120.104 25.6398L119.075 25.5574L119.073 25.5728L119.073 25.5882L120.104 25.6398ZM120.178 24.7103L121.208 24.7926L121.211 24.7515V24.7103H120.178ZM122.818 8.93826C123.775 8.93826 124.603 9.14915 125.328 9.55188L126.331 7.74632C125.271 7.15762 124.092 6.87278 122.818 6.87278V8.93826ZM125.347 9.56244C126.084 9.95102 126.635 10.4687 127.028 11.1177L128.795 10.0471C128.197 9.06023 127.36 8.28904 126.312 7.73576L125.347 9.56244ZM127.028 11.1177C127.42 11.764 127.622 12.4938 127.622 13.3336H129.688C129.688 12.1409 129.394 11.0367 128.795 10.0471L127.028 11.1177ZM127.622 13.3336C127.622 15.1225 127.171 16.3493 126.412 17.166L127.924 18.5728C129.147 17.2579 129.688 15.4609 129.688 13.3336H127.622ZM126.403 17.1756C125.573 18.091 124.528 18.7363 123.238 19.1078L123.81 21.0925C125.446 20.6212 126.83 19.7794 127.933 18.5632L126.403 17.1756ZM122.522 19.8497L122.485 19.9984L124.489 20.4993L124.526 20.3506L122.522 19.8497ZM123.239 21.2513C124.434 21.5473 125.223 22.0401 125.721 22.6607C126.216 23.2781 126.507 24.1289 126.507 25.3051H128.572C128.572 23.7798 128.188 22.437 127.332 21.369C126.479 20.3042 125.242 19.6197 123.736 19.2464L123.239 21.2513ZM126.507 25.3051C126.507 26.4916 126.218 27.6401 125.623 28.7629L127.449 29.7293C128.193 28.3239 128.572 26.8452 128.572 25.3051H126.507ZM125.627 28.7554C125.047 29.8303 124.221 30.703 123.129 31.3798L124.217 33.1353C125.604 32.2754 126.687 31.1404 127.445 29.7368L125.627 28.7554ZM123.121 31.3848C122.091 32.0363 120.875 32.3774 119.435 32.3774V34.4428C121.217 34.4428 122.826 34.0155 124.225 33.1303L123.121 31.3848ZM119.435 32.3774H105.232V34.4428H119.435V32.3774ZM106.255 33.5547L109.861 8.05011L107.816 7.76093L104.21 33.2655L106.255 33.5547ZM108.839 8.93826H122.818V6.87278H108.839V8.93826ZM114.21 13.1937L113.615 17.5436L115.662 17.8234L116.257 13.4735L114.21 13.1937ZM114.639 18.7163H118.914V16.6508H114.639V18.7163ZM118.914 18.7163C119.692 18.7163 120.39 18.4178 120.988 17.9192L119.666 16.3325C119.372 16.5774 119.128 16.6508 118.914 16.6508V18.7163ZM120.988 17.9192C121.615 17.3971 122.023 16.7095 122.065 15.8762L120.002 15.773C119.994 15.9311 119.932 16.111 119.666 16.3325L120.988 17.9192ZM122.063 15.9103L122.137 15.0181L120.079 14.8465L120.004 15.7388L122.063 15.9103ZM122.141 14.9323C122.141 14.2233 121.907 13.5645 121.392 13.0495L119.931 14.51C120.011 14.5898 120.075 14.6995 120.075 14.9323H122.141ZM121.392 13.0495C120.877 12.5345 120.218 12.3009 119.509 12.3009V14.3664C119.742 14.3664 119.852 14.4302 119.931 14.51L121.392 13.0495ZM119.509 12.3009H115.234V14.3664H119.509V12.3009ZM112.835 22.9728L112.24 27.3599L114.286 27.6374L114.881 23.2504L112.835 22.9728ZM113.263 28.5314H117.985V26.4659H113.263V28.5314ZM117.985 28.5314C118.762 28.5314 119.46 28.233 120.059 27.7344L118.736 26.1476C118.442 26.3926 118.199 26.4659 117.985 26.4659V28.5314ZM120.059 27.7344C120.685 27.2122 121.094 26.5247 121.135 25.6913L119.073 25.5882C119.065 25.7462 119.002 25.9262 118.736 26.1476L120.059 27.7344ZM121.133 25.7221L121.208 24.7926L119.149 24.6279L119.075 25.5574L121.133 25.7221ZM121.211 24.7103C121.211 24.0013 120.977 23.3425 120.462 22.8275L119.002 24.288C119.082 24.3678 119.146 24.4775 119.146 24.7103H121.211ZM120.462 22.8275C119.947 22.3125 119.289 22.0789 118.58 22.0789V24.1443C118.812 24.1443 118.922 24.2082 119.002 24.288L120.462 22.8275ZM118.58 22.0789H113.858V24.1443H118.58V22.0789ZM146.361 7.90552L147.384 8.05158L147.552 6.87278H146.361V7.90552ZM145.581 13.3708V14.4035H146.476L146.603 13.5168L145.581 13.3708ZM142.569 13.3708V12.338H141.672L141.546 13.2269L142.569 13.3708ZM140.524 27.9077L139.502 27.7638L139.336 28.9404H140.524V27.9077ZM143.536 27.9077L144.558 28.0527L144.725 26.8749H143.536V27.9077ZM142.755 33.4101V34.4428H143.652L143.778 33.5552L142.755 33.4101ZM128.85 33.4101L127.828 33.265L127.661 34.4428H128.85V33.4101ZM129.631 27.9077V26.8749H128.734L128.608 27.7626L129.631 27.9077ZM132.642 27.9077V28.9404H133.54L133.665 28.0515L132.642 27.9077ZM134.687 13.3708L135.71 13.5146L135.875 12.338H134.687V13.3708ZM131.676 13.3708L130.653 13.2247L130.485 14.4035H131.676V13.3708ZM132.457 7.90552V6.87278H131.561L131.434 7.75947L132.457 7.90552ZM145.339 7.75947L144.558 13.2247L146.603 13.5168L147.384 8.05158L145.339 7.75947ZM145.581 12.338H142.569V14.4035H145.581V12.338ZM141.546 13.2269L139.502 27.7638L141.547 28.0515L143.592 13.5146L141.546 13.2269ZM140.524 28.9404H143.536V26.8749H140.524V28.9404ZM142.513 27.7626L141.733 33.265L143.778 33.5552L144.558 28.0527L142.513 27.7626ZM142.755 32.3774H128.85V34.4428H142.755V32.3774ZM129.873 33.5552L130.653 28.0527L128.608 27.7626L127.828 33.265L129.873 33.5552ZM129.631 28.9404H132.642V26.8749H129.631V28.9404ZM133.665 28.0515L135.71 13.5146L133.665 13.2269L131.62 27.7638L133.665 28.0515ZM134.687 12.338H131.676V14.4035H134.687V12.338ZM132.698 13.5168L133.479 8.05158L131.434 7.75947L130.653 13.2247L132.698 13.5168ZM132.457 8.93826H146.361V6.87278H132.457V8.93826ZM21.1918 46.6491L20.6903 47.5519L20.7 47.5573L20.7098 47.5624L21.1918 46.6491ZM23.2739 48.5824L24.157 48.0471L24.157 48.0471L23.2739 48.5824ZM22.5303 55.8694L21.7741 55.166L21.7653 55.1756L22.5303 55.8694ZM18.8868 58.1001L18.6008 57.1078L18.0292 57.2725L17.8849 57.8497L18.8868 58.1001ZM18.8496 58.2488L17.8477 57.9984L17.5967 59.0024L18.6013 59.2513L18.8496 58.2488ZM21.8982 67.2461L22.807 67.7368L22.811 67.7293L21.8982 67.2461ZM19.0355 70.2576L18.4913 69.3798L18.4833 69.3848L19.0355 70.2576ZM0.594859 71.4101L-0.42771 71.2655L-0.594184 72.4428H0.594859V71.4101ZM4.20119 45.9055V44.8728H3.30421L3.17862 45.7609L4.20119 45.9055ZM10.5959 51.3336V50.3009H9.6948L9.57271 51.1937L10.5959 51.3336ZM10.0011 55.6835L8.97785 55.5436L8.81748 56.7163H10.0011V55.6835ZM15.6894 55.1258L15.0283 54.3325H15.0283L15.6894 55.1258ZM16.3958 53.8246L15.3666 53.7388L15.3652 53.7559L15.3643 53.773L16.3958 53.8246ZM16.4702 52.9323L17.4993 53.0181L17.5029 52.9753V52.9323H16.4702ZM16.024 51.7798L15.2937 52.51H15.2938L16.024 51.7798ZM9.22031 61.1116V60.0789H8.31815L8.19693 60.9728L9.22031 61.1116ZM8.62545 65.4987L7.60208 65.3599L7.44323 66.5314H8.62545V65.4987ZM15.4663 63.6398L14.4369 63.5574L14.4356 63.5728L14.4349 63.5882L15.4663 63.6398ZM15.5407 62.7103L16.5701 62.7926L16.5734 62.7515V62.7103H15.5407ZM18.1804 46.9383C19.1369 46.9383 19.9654 47.1491 20.6903 47.5519L21.6934 45.7463C20.6337 45.1576 19.4546 44.8728 18.1804 44.8728V46.9383ZM20.7098 47.5624C21.4461 47.951 21.9973 48.4687 22.3907 49.1177L24.157 48.0471C23.5589 47.0602 22.7222 46.289 21.6739 45.7358L20.7098 47.5624ZM22.3907 49.1177C22.7824 49.764 22.9847 50.4938 22.9847 51.3336H25.0502C25.0502 50.1409 24.7568 49.0367 24.157 48.0471L22.3907 49.1177ZM22.9847 51.3336C22.9847 53.1225 22.5338 54.3493 21.7741 55.166L23.2864 56.5728C24.5096 55.2579 25.0502 53.4609 25.0502 51.3336H22.9847ZM21.7653 55.1756C20.9351 56.091 19.89 56.7363 18.6008 57.1078L19.1727 59.0925C20.8083 58.6212 22.1922 57.7794 23.2952 56.5632L21.7653 55.1756ZM17.8849 57.8497L17.8477 57.9984L19.8515 58.4993L19.8887 58.3506L17.8849 57.8497ZM18.6013 59.2513C19.7961 59.5473 20.5857 60.0401 21.0831 60.6607C21.5779 61.2781 21.8693 62.1289 21.8693 63.3051H23.9348C23.9348 61.7798 23.5508 60.437 22.6948 59.369C21.8414 58.3042 20.6047 57.6197 19.0979 57.2464L18.6013 59.2513ZM21.8693 63.3051C21.8693 64.4916 21.5799 65.6401 20.9855 66.7629L22.811 67.7293C23.555 66.3239 23.9348 64.8452 23.9348 63.3051H21.8693ZM20.9895 66.7554C20.4091 67.8303 19.583 68.7029 18.4913 69.3798L19.5797 71.1353C20.9665 70.2754 22.049 69.1404 22.807 67.7368L20.9895 66.7554ZM18.4833 69.3848C17.4535 70.0363 16.2371 70.3774 14.7971 70.3774V72.4428C16.5793 72.4428 18.1885 72.0155 19.5876 71.1303L18.4833 69.3848ZM14.7971 70.3774H0.594859V72.4428H14.7971V70.3774ZM1.61743 71.5547L5.22376 46.0501L3.17862 45.7609L-0.42771 71.2655L1.61743 71.5547ZM4.20119 46.9383H18.1804V44.8728H4.20119V46.9383ZM9.57271 51.1937L8.97785 55.5436L11.0243 55.8234L11.6191 51.4735L9.57271 51.1937ZM10.0011 56.7163H14.2766V54.6508H10.0011V56.7163ZM14.2766 56.7163C15.0541 56.7163 15.7522 56.4178 16.3505 55.9192L15.0283 54.3325C14.7343 54.5774 14.4905 54.6508 14.2766 54.6508V56.7163ZM16.3505 55.9192C16.9771 55.3971 17.3856 54.7095 17.4272 53.8762L15.3643 53.773C15.3564 53.9311 15.294 54.111 15.0283 54.3325L16.3505 55.9192ZM17.425 53.9103L17.4993 53.0181L15.441 52.8465L15.3666 53.7388L17.425 53.9103ZM17.5029 52.9323C17.5029 52.2233 17.2693 51.5645 16.7543 51.0495L15.2938 52.51C15.3736 52.5898 15.4374 52.6995 15.4374 52.9323H17.5029ZM16.7543 51.0495C16.2392 50.5345 15.5805 50.3009 14.8715 50.3009V52.3664C15.1043 52.3664 15.2139 52.4302 15.2937 52.51L16.7543 51.0495ZM14.8715 50.3009H10.5959V52.3664H14.8715V50.3009ZM8.19693 60.9728L7.60208 65.3599L9.64883 65.6375L10.2437 61.2504L8.19693 60.9728ZM8.62545 66.5314H13.3471V64.4659H8.62545V66.5314ZM13.3471 66.5314C14.1247 66.5314 14.8228 66.233 15.4211 65.7344L14.0988 64.1476C13.8048 64.3926 13.5611 64.4659 13.3471 64.4659V66.5314ZM15.4211 65.7344C16.0477 65.2122 16.4561 64.5247 16.4978 63.6913L14.4349 63.5882C14.427 63.7462 14.3645 63.9262 14.0988 64.1476L15.4211 65.7344ZM16.4958 63.7221L16.5701 62.7926L14.5112 62.6279L14.4369 63.5574L16.4958 63.7221ZM16.5734 62.7103C16.5734 62.0013 16.3398 61.3425 15.8248 60.8275L14.3643 62.288C14.4441 62.3678 14.5079 62.4775 14.5079 62.7103H16.5734ZM15.8248 60.8275C15.3098 60.3125 14.651 60.0789 13.942 60.0789V62.1443C14.1748 62.1443 14.2845 62.2082 14.3643 62.288L15.8248 60.8275ZM13.942 60.0789H9.22031V62.1443H13.942V60.0789ZM104.604 45.9055L105.627 46.0501L105.793 44.8728H104.604V45.9055ZM100.998 71.4101V72.4428H101.895L102.02 71.5547L100.998 71.4101ZM93.1901 71.4101L92.1674 71.266L92.0016 72.4428H93.1901V71.4101ZM95.4952 55.0515L96.5178 55.1956L96.6836 54.0187H95.4952V55.0515ZM95.3465 55.0515V54.0187H94.656L94.3921 54.6567L95.3465 55.0515ZM88.5799 71.4101V72.4428H89.2704L89.5343 71.8048L88.5799 71.4101ZM79.6199 71.4101L78.5957 71.5428L78.7123 72.4428H79.6199V71.4101ZM77.5007 55.0515L78.5249 54.9188L78.4083 54.0187H77.5007V55.0515ZM77.3148 55.0515V54.0187H76.4174L76.2922 54.9074L77.3148 55.0515ZM75.0097 71.4101V72.4428H75.9071L76.0324 71.5542L75.0097 71.4101ZM67.9086 71.4101L66.886 71.2655L66.7195 72.4428H67.9086V71.4101ZM71.5149 45.9055V44.8728H70.6179L70.4923 45.7609L71.5149 45.9055ZM84.3044 45.9055L85.3287 45.774L85.213 44.8728H84.3044V45.9055ZM86.0518 59.5129L85.0275 59.6445L85.1432 60.5457H86.0518V59.5129ZM86.2005 59.5129V60.5457H86.8951L87.157 59.9023L86.2005 59.5129ZM91.7401 45.9055V44.8728H91.0455L90.7836 45.5161L91.7401 45.9055ZM103.581 45.7609L99.975 71.2655L102.02 71.5547L105.627 46.0501L103.581 45.7609ZM100.998 70.3774H93.1901V72.4428H100.998V70.3774ZM94.2127 71.5542L96.5178 55.1956L94.4725 54.9074L92.1674 71.266L94.2127 71.5542ZM95.4952 54.0187H95.3465V56.0842H95.4952V54.0187ZM94.3921 54.6567L87.6256 71.0154L89.5343 71.8048L96.3008 55.4462L94.3921 54.6567ZM88.5799 70.3774H79.6199V72.4428H88.5799V70.3774ZM80.6441 71.2774L78.5249 54.9188L76.4765 55.1842L78.5957 71.5428L80.6441 71.2774ZM77.5007 54.0187H77.3148V56.0842H77.5007V54.0187ZM76.2922 54.9074L73.9871 71.266L76.0324 71.5542L78.3374 55.1956L76.2922 54.9074ZM75.0097 70.3774H67.9086V72.4428H75.0097V70.3774ZM68.9312 71.5547L72.5375 46.0501L70.4923 45.7609L66.886 71.2655L68.9312 71.5547ZM71.5149 46.9383H84.3044V44.8728H71.5149V46.9383ZM83.2801 46.0371L85.0275 59.6445L87.0761 59.3814L85.3287 45.774L83.2801 46.0371ZM86.0518 60.5457H86.2005V58.4802H86.0518V60.5457ZM87.157 59.9023L92.6966 46.2949L90.7836 45.5161L85.244 59.1235L87.157 59.9023ZM91.7401 46.9383H104.604V44.8728H91.7401V46.9383ZM125.829 46.6491L125.328 47.5519L125.338 47.5573L125.347 47.5624L125.829 46.6491ZM127.911 48.5824L128.795 48.0471V48.0471L127.911 48.5824ZM127.168 55.8694L126.412 55.166L126.403 55.1756L127.168 55.8694ZM123.524 58.1001L123.238 57.1078L122.667 57.2725L122.522 57.8497L123.524 58.1001ZM123.487 58.2488L122.485 57.9984L122.234 59.0024L123.239 59.2513L123.487 58.2488ZM126.536 67.2461L127.445 67.7368L127.449 67.7293L126.536 67.2461ZM123.673 70.2576L123.129 69.3798L123.121 69.3848L123.673 70.2576ZM105.232 71.4101L104.21 71.2655L104.043 72.4428H105.232V71.4101ZM108.839 45.9055V44.8728H107.942L107.816 45.7609L108.839 45.9055ZM115.234 51.3336V50.3009H114.332L114.21 51.1937L115.234 51.3336ZM114.639 55.6835L113.615 55.5436L113.455 56.7163H114.639V55.6835ZM120.327 55.1258L119.666 54.3325L120.327 55.1258ZM121.033 53.8246L120.004 53.7388L120.003 53.7559L120.002 53.773L121.033 53.8246ZM121.108 52.9323L122.137 53.0181L122.141 52.9753V52.9323H121.108ZM120.662 51.7798L119.931 52.51H119.931L120.662 51.7798ZM113.858 61.1116V60.0789H112.956L112.835 60.9728L113.858 61.1116ZM113.263 65.4987L112.24 65.3599L112.081 66.5314H113.263V65.4987ZM120.104 63.6398L119.075 63.5574L119.073 63.5728L119.073 63.5882L120.104 63.6398ZM120.178 62.7103L121.208 62.7926L121.211 62.7515V62.7103H120.178ZM122.818 46.9383C123.775 46.9383 124.603 47.1491 125.328 47.5519L126.331 45.7463C125.271 45.1576 124.092 44.8728 122.818 44.8728V46.9383ZM125.347 47.5624C126.084 47.951 126.635 48.4687 127.028 49.1177L128.795 48.0471C128.197 47.0602 127.36 46.289 126.312 45.7358L125.347 47.5624ZM127.028 49.1177C127.42 49.764 127.622 50.4938 127.622 51.3336H129.688C129.688 50.1409 129.394 49.0367 128.795 48.0471L127.028 49.1177ZM127.622 51.3336C127.622 53.1225 127.171 54.3493 126.412 55.166L127.924 56.5728C129.147 55.2579 129.688 53.4609 129.688 51.3336H127.622ZM126.403 55.1756C125.573 56.091 124.528 56.7363 123.238 57.1078L123.81 59.0925C125.446 58.6212 126.83 57.7794 127.933 56.5632L126.403 55.1756ZM122.522 57.8497L122.485 57.9984L124.489 58.4993L124.526 58.3506L122.522 57.8497ZM123.239 59.2513C124.434 59.5473 125.223 60.0401 125.721 60.6607C126.216 61.2781 126.507 62.1289 126.507 63.3051H128.572C128.572 61.7798 128.188 60.437 127.332 59.369C126.479 58.3042 125.242 57.6197 123.736 57.2464L123.239 59.2513ZM126.507 63.3051C126.507 64.4916 126.218 65.6401 125.623 66.7629L127.449 67.7293C128.193 66.3239 128.572 64.8452 128.572 63.3051H126.507ZM125.627 66.7554C125.047 67.8303 124.221 68.7029 123.129 69.3798L124.217 71.1353C125.604 70.2754 126.687 69.1404 127.445 67.7368L125.627 66.7554ZM123.121 69.3848C122.091 70.0363 120.875 70.3774 119.435 70.3774V72.4428C121.217 72.4428 122.826 72.0155 124.225 71.1303L123.121 69.3848ZM119.435 70.3774H105.232V72.4428H119.435V70.3774ZM106.255 71.5547L109.861 46.0501L107.816 45.7609L104.21 71.2655L106.255 71.5547ZM108.839 46.9383H122.818V44.8728H108.839V46.9383ZM114.21 51.1937L113.615 55.5436L115.662 55.8234L116.257 51.4735L114.21 51.1937ZM114.639 56.7163H118.914V54.6508H114.639V56.7163ZM118.914 56.7163C119.692 56.7163 120.39 56.4178 120.988 55.9192L119.666 54.3325C119.372 54.5774 119.128 54.6508 118.914 54.6508V56.7163ZM120.988 55.9192C121.615 55.3971 122.023 54.7095 122.065 53.8762L120.002 53.773C119.994 53.9311 119.932 54.111 119.666 54.3325L120.988 55.9192ZM122.063 53.9103L122.137 53.0181L120.079 52.8465L120.004 53.7388L122.063 53.9103ZM122.141 52.9323C122.141 52.2233 121.907 51.5645 121.392 51.0495L119.931 52.51C120.011 52.5898 120.075 52.6995 120.075 52.9323H122.141ZM121.392 51.0495C120.877 50.5345 120.218 50.3009 119.509 50.3009V52.3664C119.742 52.3664 119.852 52.4302 119.931 52.51L121.392 51.0495ZM119.509 50.3009H115.234V52.3664H119.509V50.3009ZM112.835 60.9728L112.24 65.3599L114.286 65.6375L114.881 61.2504L112.835 60.9728ZM113.263 66.5314H117.985V64.4659H113.263V66.5314ZM117.985 66.5314C118.762 66.5314 119.46 66.233 120.059 65.7344L118.736 64.1476C118.442 64.3926 118.199 64.4659 117.985 64.4659V66.5314ZM120.059 65.7344C120.685 65.2122 121.094 64.5247 121.135 63.6913L119.073 63.5882C119.065 63.7462 119.002 63.9262 118.736 64.1476L120.059 65.7344ZM121.133 63.7221L121.208 62.7926L119.149 62.6279L119.075 63.5574L121.133 63.7221ZM121.211 62.7103C121.211 62.0013 120.977 61.3425 120.462 60.8275L119.002 62.288C119.082 62.3678 119.146 62.4775 119.146 62.7103H121.211ZM120.462 60.8275C119.947 60.3125 119.289 60.0789 118.58 60.0789V62.1443C118.812 62.1443 118.922 62.2082 119.002 62.288L120.462 60.8275ZM118.58 60.0789H113.858V62.1443H118.58V60.0789ZM146.361 45.9055L147.384 46.0516L147.552 44.8728H146.361V45.9055ZM145.581 51.3708V52.4035H146.476L146.603 51.5168L145.581 51.3708ZM142.569 51.3708V50.338H141.672L141.546 51.2269L142.569 51.3708ZM140.524 65.9077L139.502 65.7638L139.336 66.9404H140.524V65.9077ZM143.536 65.9077L144.558 66.0527L144.725 64.8749H143.536V65.9077ZM142.755 71.4101V72.4428H143.652L143.778 71.5552L142.755 71.4101ZM128.85 71.4101L127.828 71.265L127.661 72.4428H128.85V71.4101ZM129.631 65.9077V64.8749H128.734L128.608 65.7626L129.631 65.9077ZM132.642 65.9077V66.9404H133.54L133.665 66.0515L132.642 65.9077ZM134.687 51.3708L135.71 51.5146L135.875 50.338H134.687V51.3708ZM131.676 51.3708L130.653 51.2247L130.485 52.4035H131.676V51.3708ZM132.457 45.9055V44.8728H131.561L131.434 45.7595L132.457 45.9055ZM145.339 45.7595L144.558 51.2247L146.603 51.5168L147.384 46.0516L145.339 45.7595ZM145.581 50.338H142.569V52.4035H145.581V50.338ZM141.546 51.2269L139.502 65.7638L141.547 66.0515L143.592 51.5146L141.546 51.2269ZM140.524 66.9404H143.536V64.8749H140.524V66.9404ZM142.513 65.7626L141.733 71.265L143.778 71.5552L144.558 66.0527L142.513 65.7626ZM142.755 70.3774H128.85V72.4428H142.755V70.3774ZM129.873 71.5552L130.653 66.0527L128.608 65.7626L127.828 71.265L129.873 71.5552ZM129.631 66.9404H132.642V64.8749H129.631V66.9404ZM133.665 66.0515L135.71 51.5146L133.665 51.2269L131.62 65.7638L133.665 66.0515ZM134.687 50.338H131.676V52.4035H134.687V50.338ZM132.698 51.5168L133.479 46.0516L131.434 45.7595L130.653 51.2247L132.698 51.5168ZM132.457 46.9383H146.361V44.8728H132.457V46.9383Z" fill="black"/>
<path d="M30.3662 32.5796C24.7949 29.4871 25.412 22.0399 25.9592 17.8455C27.364 8.24576 33.4634 6.37935 37.0926 7.01678C41.629 7.81371 47.2964 10.2881 44.6803 22.8041C42.0642 35.32 32.7215 34.1643 30.3662 32.5796Z" fill="#9853F0" stroke="black" stroke-width="1.03274"/>
<path d="M30.1479 27.5606C26.8204 26.3855 26.7992 22.1245 26.901 19.7042C27.2208 14.1494 31.0764 13.015 32.8703 12.7433C34.5912 12.6207 38.6744 13.2678 37.8107 20.5901C36.947 27.9123 31.5686 28.2137 30.1479 27.5606Z" fill="white"/>
<ellipse rx="2.92441" ry="3.45548" transform="matrix(0.999761 -0.0315684 -0.00784229 0.999756 29.8029 19.7585)" fill="black"/>
<path d="M52.1071 32.7089C46.5357 29.6165 47.1528 22.1693 47.7001 17.9748C49.1049 8.37512 55.2043 6.50872 58.8334 7.14615C63.3699 7.94307 69.0372 10.4175 66.4212 22.9334C63.8051 35.4494 54.4624 34.2937 52.1071 32.7089Z" fill="#9853F0" stroke="black" stroke-width="1.03274"/>
<path d="M51.8885 27.6899C48.561 26.5149 48.5398 22.2538 48.6416 19.8335C48.9614 14.2788 52.817 13.1444 54.6109 12.8726C56.3318 12.7501 60.415 13.3972 59.5513 20.7194C58.6876 28.0417 53.3092 28.343 51.8885 27.6899Z" fill="white"/>
<ellipse rx="2.92441" ry="3.45548" transform="matrix(0.999761 -0.0315684 -0.00784229 0.999756 51.5316 19.8879)" fill="black"/>
<path d="M51.469 70.4902C45.8539 67.388 46.4564 59.9307 46.9968 55.7307C48.3868 46.1186 54.5211 44.2554 58.1754 44.8972C62.7433 45.6997 68.4535 48.1831 65.8516 60.7145C63.2497 73.2459 53.8436 72.0795 51.469 70.4902Z" fill="#9853F0" stroke="black" stroke-width="1.03274"/>
<path d="M57.4047 65.1804C54.0526 64.0004 54.0207 59.7333 54.1172 57.3096C54.4252 51.7472 58.303 50.6149 60.1078 50.3444C61.8396 50.2234 65.9509 50.8753 65.0998 58.2073C64.2488 65.5392 58.8362 65.8358 57.4047 65.1804Z" fill="white"/>
<ellipse rx="2.94393" ry="3.4595" transform="matrix(0.999493 -0.0304467 -0.00539832 1.00002 62.2038 57.3663)" fill="black"/>
<path d="M30.4553 70.4903C24.8401 67.3881 25.4426 59.9308 25.983 55.7308C27.373 46.1187 33.5073 44.2555 37.1616 44.8973C41.7295 45.6998 47.4397 48.1832 44.8378 60.7146C42.2359 73.246 32.8298 72.0796 30.4553 70.4903Z" fill="#9853F0" stroke="black" stroke-width="1.03274"/>
<path d="M36.4193 65.1804C33.0673 64.0005 33.0354 59.7333 33.1318 57.3096C33.4398 51.7472 37.3176 50.6149 39.1224 50.3445C40.8543 50.2234 44.9655 50.8754 44.1145 58.2073C43.2634 65.5392 37.8508 65.8358 36.4193 65.1804Z" fill="white"/>
<ellipse rx="2.94393" ry="3.4595" transform="matrix(0.999493 -0.0304467 -0.00539831 1.00002 41.2183 57.3665)" fill="black"/>
</svg>
