<svg width="18" height="18" viewBox="0 0 18 18" fill="none" xmlns="http://www.w3.org/2000/svg">
<g clip-path="url(#clip0_718_2869)">
<path d="M8.04748 14.1975C4.73998 14.1975 2.04749 11.475 2.04749 8.12249C2.04749 4.76999 4.73998 2.04749 8.04748 2.04749C11.355 2.04749 14.0475 4.76999 14.0475 8.12249C14.0475 11.475 11.355 14.1975 8.04748 14.1975ZM8.04748 3.17249C5.35498 3.17249 3.17249 5.39249 3.17249 8.12249C3.17249 10.8525 5.36248 13.0725 8.04748 13.0725C10.7325 13.0725 12.9225 10.8525 12.9225 8.12249C12.9225 5.39249 10.7325 3.17249 8.04748 3.17249Z" fill="#222222"/>
<path d="M15.39 15.9525C15.2475 15.9525 15.0975 15.9 14.9925 15.7875L11.6025 12.3525C11.385 12.135 11.385 11.775 11.6025 11.5575C11.82 11.34 12.18 11.34 12.3975 11.5575L15.7875 14.9925C16.005 15.21 16.005 15.57 15.7875 15.7875C15.675 15.8925 15.5325 15.9525 15.39 15.9525Z" fill="#222222"/>
</g>
<defs>
<clipPath id="clip0_718_2869">
<rect width="18" height="18" fill="white"/>
</clipPath>
</defs>
</svg>
