<svg width="20" height="22" viewBox="0 0 20 22" fill="none" xmlns="http://www.w3.org/2000/svg">
<path d="M19.42 6C18.16 0.840001 14.18 0.700001 14.18 0.700001C13.91 0.700001 13.49 0.800001 13.25 0.930001L3.47003 6.6C3.23003 6.74 2.84003 6.96 2.61003 7.1L2.18003 7.35C-0.169973 8.73 -0.319973 12.46 2.44003 13.48C2.85003 13.63 3.30003 13.7 3.74003 13.68H7.18003C7.45003 13.67 7.68003 13.89 7.68003 14.17V19.11C7.68003 20.54 8.63003 21.32 9.81003 21.32C10.99 21.32 11.94 20.55 11.94 19.11V14.16C11.94 13.89 12.16 13.66 12.44 13.66H16.36C16.63 13.65 17.05 13.52 17.28 13.37C17.28 13.37 20.7 11.17 19.44 6H19.42Z" fill="#888888"/>
</svg>
