<svg width="24" height="24" viewBox="0 0 24 24" fill="none" xmlns="http://www.w3.org/2000/svg">
<path d="M16.38 6.8C16.17 6.62 15.83 6.33 15.62 6.14L12.38 3.33C12.17 3.15 11.83 3.15 11.62 3.33L8.38 6.14C8.17 6.32 7.83 6.61 7.62 6.8L4.38 9.61C4.17 9.79 4 10.16 4 10.44V20.5C4 20.77 4.23 21 4.5 21H8.64C8.91 21 9.14 20.77 9.14 20.5V17.45C9.14 17.18 9.17 16.73 9.2 16.45C9.2 16.45 9.45 14.25 12 14.25C14.55 14.25 14.76 16.4 14.76 16.4C14.79 16.67 14.82 17.12 14.82 17.4L14.85 20.49C14.85 20.76 15.08 20.99 15.35 20.99H19.49C19.76 20.99 19.99 20.76 19.99 20.49V10.44C19.99 10.17 19.82 9.79 19.61 9.61L16.37 6.8H16.38Z" fill="#888888"/>
</svg>
