<svg width="24" height="24" viewBox="0 0 24 24" fill="none" xmlns="http://www.w3.org/2000/svg">
<path d="M22 21.75H2C1.59 21.75 1.25 21.41 1.25 21C1.25 20.59 1.59 20.25 2 20.25H22C22.41 20.25 22.75 20.59 22.75 21C22.75 21.41 22.41 21.75 22 21.75Z" fill="#7F73FF"/>
<path d="M17.8398 3H13.8398C13.2876 3 12.8398 3.44772 12.8398 4V20C12.8398 20.5523 13.2876 21 13.8398 21H17.8398C18.3921 21 18.8398 20.5523 18.8398 20V4C18.8398 3.44772 18.3921 3 17.8398 3Z" fill="#7F73FF"/>
<path d="M10.1599 11H6.15991C5.60763 11 5.15991 11.4477 5.15991 12V20C5.15991 20.5523 5.60763 21 6.15991 21H10.1599C10.7122 21 11.1599 20.5523 11.1599 20V12C11.1599 11.4477 10.7122 11 10.1599 11Z" fill="#7F73FF"/>
</svg>
