<svg width="512" height="512" viewBox="0 0 512 512" fill="none" xmlns="http://www.w3.org/2000/svg">
<g clipPath="url(#clip0_647_1331)">
<path d="M462 0H50C22.3858 0 0 22.3858 0 50V462C0 489.614 22.3858 512 50 512H462C489.614 512 512 489.614 512 462V50C512 22.3858 489.614 0 462 0Z" fill="#F1EFFF"/>
<path d="M101.65 374.72C47.85 344.86 53.81 272.95 59.09 232.44C72.66 139.74 131.55 121.72 166.6 127.87C210.41 135.57 265.13 159.46 239.87 280.32C214.61 401.18 124.39 390.02 101.65 374.72Z" fill="#7F73FF"/>
<path d="M99.55 326.26C67.42 314.91 67.21 273.77 68.2 250.4C71.29 196.76 108.52 185.81 125.84 183.18C142.46 182 181.89 188.24 173.55 258.95C165.21 329.66 113.27 332.57 99.56 326.26H99.55Z" fill="white"/>
<path d="M124.236 253.911C126.181 235.556 115.216 219.348 99.745 217.708C84.2738 216.068 70.1549 229.618 68.2096 247.973C66.2643 266.327 77.2291 282.536 92.7004 284.176C108.172 285.816 122.29 272.266 124.236 253.911Z" fill="#222222"/>
<path d="M311.59 375.97C257.79 346.11 263.75 274.2 269.03 233.69C282.6 140.99 341.49 122.97 376.54 129.13C420.34 136.83 475.07 160.72 449.81 281.58C424.55 402.44 334.33 391.28 311.59 375.98V375.97Z" fill="#7F73FF"/>
<path d="M309.48 327.51C277.35 316.16 277.14 275.02 278.13 251.65C281.22 198.01 318.45 187.06 335.77 184.43C352.39 183.25 391.82 189.5 383.48 260.2C375.14 330.91 323.2 333.82 309.49 327.51H309.48Z" fill="white"/>
<path d="M334.073 255.161C336.018 236.807 325.053 220.598 309.582 218.958C294.111 217.319 279.992 230.869 278.047 249.223C276.101 267.578 287.066 283.786 302.538 285.426C318.009 287.066 332.128 273.516 334.073 255.161Z" fill="#222222"/>
</g>
<defs>
<clipPath id="clip0_647_1331">
<rect width="512" height="512" fill="white"/>
</clipPath>
</defs>
</svg>
